<svg xmlns="http://www.w3.org/2000/svg" viewBox="0 0 580 466" width="580" height="466" role="img" aria-label="Invite-Only Onboarding — A gated onboarding flow, built as a self-contained portal.">
<rect width="580" height="466" fill="#0a0a0a"/>
<rect x="0.5" y="0.5" width="579" height="465" rx="16" fill="none" stroke="#313131"/>
<defs><clipPath id="monboarding"><rect x="1" y="1" width="578" height="290" rx="1"/></clipPath></defs>
<g clip-path="url(#monboarding)">
<rect x="1" y="1" width="578" height="290" fill="#262626"/>
<defs><pattern id="ponboarding" width="40" height="40" patternUnits="userSpaceOnUse" patternTransform="translate(-1 -1)"><path d="M40 0 L0 0 0 40" fill="none" stroke="#404040" stroke-width="1"/></pattern></defs><rect x="1" y="1" width="578" height="290" fill="url(#ponboarding)"/>
<path d="M282.46 187.76V105.40H297.54V187.76Z" fill="#525252"/>
</g>
<rect x="0" y="291" width="580" height="1" fill="#313131"/>
<rect x="28" y="256" width="77.6" height="22" rx="6" fill="#22120c"/>
<path d="M39.00 271.30V262.78H41.47Q42.87 262.78 43.60 263.39Q44.34 264.00 44.34 265.10Q44.34 265.62 44.10 266.04Q43.86 266.45 43.39 266.70Q42.93 266.94 42.30 266.96V266.88Q43.08 266.88 43.61 267.14Q44.14 267.40 44.42 267.86Q44.70 268.32 44.70 268.94Q44.70 270.06 43.92 270.68Q43.15 271.30 41.76 271.30ZM40.26 270.12H41.77Q42.60 270.12 42.99 269.79Q43.39 269.46 43.39 268.88Q43.39 268.25 42.97 267.90Q42.56 267.56 41.77 267.56H40.26ZM40.26 266.39H41.49Q42.28 266.39 42.66 266.07Q43.03 265.76 43.03 265.18Q43.03 264.59 42.66 264.27Q42.28 263.96 41.49 263.96H40.26ZM48.80 271.49Q47.43 271.49 46.66 270.65Q45.90 269.81 45.90 268.34V262.78H47.16V268.38Q47.16 269.32 47.58 269.82Q48.00 270.32 48.80 270.32Q49.60 270.32 50.02 269.82Q50.44 269.32 50.44 268.38V262.78H51.70V268.34Q51.70 269.81 50.94 270.65Q50.17 271.49 48.80 271.49ZM53.34 271.30V270.11H55.38V263.97H53.34V262.78H58.66V263.97H56.62V270.11H58.66V271.30ZM60.78 271.30V262.78H62.04V270.82L61.27 270.11H66.10V271.30ZM67.80 271.30V262.78H69.87Q71.00 262.78 71.83 263.28Q72.67 263.78 73.12 264.73Q73.57 265.68 73.57 267.05Q73.57 268.42 73.12 269.37Q72.67 270.32 71.83 270.81Q71.00 271.30 69.87 271.30ZM69.06 270.11H69.84Q71.00 270.11 71.63 269.35Q72.26 268.59 72.26 267.05Q72.26 265.52 71.63 264.74Q71.00 263.97 69.84 263.97H69.06ZM74.94 271.30V270.11H76.98V263.97H74.94V262.78H80.26V263.97H78.22V270.11H80.26V271.30ZM82.02 271.30V262.78H83.55L86.56 270.02L86.35 270.06V262.78H87.58V271.30H86.05L83.04 264.06L83.25 264.00V271.30ZM91.99 271.49Q91.06 271.49 90.36 270.99Q89.65 270.48 89.24 269.49Q88.83 268.50 88.83 267.05Q88.83 265.67 89.22 264.68Q89.60 263.68 90.31 263.13Q91.03 262.59 92.02 262.59Q92.83 262.59 93.44 262.94Q94.05 263.28 94.47 263.92Q94.88 264.56 95.06 265.41L93.75 265.49Q93.57 264.71 93.15 264.24Q92.72 263.78 92.04 263.78Q91.44 263.78 91.01 264.15Q90.58 264.53 90.36 265.26Q90.14 266.00 90.14 267.05Q90.14 268.10 90.37 268.82Q90.60 269.55 91.03 269.93Q91.47 270.30 92.10 270.30Q92.65 270.30 93.04 270.02Q93.44 269.74 93.66 269.23Q93.88 268.72 93.91 268.05H92.04V266.96H95.07V271.30H94.05L93.99 269.34L94.32 269.33Q94.18 269.94 93.89 270.44Q93.60 270.93 93.13 271.21Q92.66 271.49 91.99 271.49Z" fill="#ff5a1f"/>
<path d="M29.92 350.00V332.96H33.04V350.00ZM36.16 350.00V337.18H38.94L39.06 340.78L38.70 340.64Q38.90 339.30 39.50 338.48Q40.10 337.66 40.96 337.28Q41.82 336.90 42.86 336.90Q44.27 336.90 45.24 337.52Q46.22 338.14 46.72 339.24Q47.22 340.33 47.22 341.77V350.00H44.15V342.75Q44.15 341.67 43.94 340.93Q43.72 340.18 43.23 339.79Q42.74 339.39 41.92 339.39Q40.70 339.39 39.96 340.26Q39.23 341.12 39.23 342.75V350.00ZM53.61 350.00 48.93 337.18H52.17L55.43 346.90L58.70 337.18H61.94L57.26 350.00ZM63.64 350.00V337.18H66.71V350.00ZM63.59 335.48V332.74H66.78V335.48ZM74.75 350.00Q72.83 350.00 71.93 349.11Q71.03 348.22 71.03 346.33V334.18H74.10V346.04Q74.10 346.93 74.49 347.28Q74.87 347.62 75.69 347.62H77.49V350.00ZM69.02 339.56V337.18H77.49V339.56ZM84.93 350.29Q83.01 350.29 81.59 349.46Q80.18 348.63 79.41 347.12Q78.64 345.61 78.64 343.59Q78.64 341.58 79.41 340.08Q80.18 338.58 81.58 337.74Q82.98 336.90 84.86 336.90Q86.68 336.90 88.06 337.71Q89.44 338.53 90.18 340.06Q90.93 341.60 90.93 343.76V344.46H81.83Q81.93 346.14 82.76 346.99Q83.58 347.84 84.95 347.84Q85.98 347.84 86.67 347.37Q87.35 346.90 87.62 346.06L90.76 346.26Q90.23 348.13 88.68 349.21Q87.14 350.29 84.93 350.29ZM81.83 342.39H87.76Q87.66 340.83 86.87 340.08Q86.08 339.32 84.86 339.32Q83.63 339.32 82.83 340.11Q82.02 340.90 81.83 342.39ZM92.34 344.29V341.70H100.50V344.29ZM110.10 350.38Q107.58 350.38 105.76 349.32Q103.94 348.25 102.96 346.26Q101.99 344.26 101.99 341.50Q101.99 338.74 102.96 336.74Q103.94 334.74 105.76 333.66Q107.58 332.58 110.10 332.58Q112.67 332.58 114.48 333.66Q116.30 334.74 117.27 336.74Q118.24 338.74 118.24 341.50Q118.24 344.26 117.27 346.26Q116.30 348.25 114.48 349.32Q112.67 350.38 110.10 350.38ZM110.10 347.67Q111.66 347.67 112.76 346.94Q113.85 346.21 114.44 344.83Q115.02 343.45 115.02 341.50Q115.02 339.56 114.44 338.17Q113.85 336.78 112.76 336.03Q111.66 335.29 110.10 335.29Q108.59 335.29 107.49 336.03Q106.38 336.78 105.80 338.17Q105.21 339.56 105.21 341.50Q105.21 343.45 105.80 344.83Q106.38 346.21 107.49 346.94Q108.59 347.67 110.10 347.67ZM120.47 350.00V337.18H123.26L123.38 340.78L123.02 340.64Q123.21 339.30 123.81 338.48Q124.41 337.66 125.27 337.28Q126.14 336.90 127.17 336.90Q128.58 336.90 129.56 337.52Q130.53 338.14 131.03 339.24Q131.54 340.33 131.54 341.77V350.00H128.46V342.75Q128.46 341.67 128.25 340.93Q128.03 340.18 127.54 339.79Q127.05 339.39 126.23 339.39Q125.01 339.39 124.28 340.26Q123.54 341.12 123.54 342.75V350.00ZM137.49 350.00Q136.10 350.00 135.26 349.28Q134.42 348.56 134.42 346.98V332.96H137.49V346.66Q137.49 347.14 137.74 347.38Q137.99 347.62 138.45 347.62H139.38V350.00ZM141.98 353.60V351.22H143.61Q144.23 351.22 144.53 351.03Q144.83 350.84 145.00 350.38L145.36 349.50H144.47L139.89 337.18H143.08L146.30 346.62L149.37 337.18H152.56L147.54 351.34Q147.11 352.54 146.33 353.07Q145.55 353.60 144.16 353.60ZM166.91 350.38Q164.39 350.38 162.57 349.32Q160.74 348.25 159.77 346.26Q158.80 344.26 158.80 341.50Q158.80 338.74 159.77 336.74Q160.74 334.74 162.57 333.66Q164.39 332.58 166.91 332.58Q169.48 332.58 171.29 333.66Q173.10 334.74 174.08 336.74Q175.05 338.74 175.05 341.50Q175.05 344.26 174.08 346.26Q173.10 348.25 171.29 349.32Q169.48 350.38 166.91 350.38ZM166.91 347.67Q168.47 347.67 169.56 346.94Q170.66 346.21 171.24 344.83Q171.83 343.45 171.83 341.50Q171.83 339.56 171.24 338.17Q170.66 336.78 169.56 336.03Q168.47 335.29 166.91 335.29Q165.40 335.29 164.30 336.03Q163.19 336.78 162.60 338.17Q162.02 339.56 162.02 341.50Q162.02 343.45 162.60 344.83Q163.19 346.21 164.30 346.94Q165.40 347.67 166.91 347.67ZM177.28 350.00V337.18H180.06L180.18 340.78L179.82 340.64Q180.02 339.30 180.62 338.48Q181.22 337.66 182.08 337.28Q182.94 336.90 183.98 336.90Q185.39 336.90 186.36 337.52Q187.34 338.14 187.84 339.24Q188.34 340.33 188.34 341.77V350.00H185.27V342.75Q185.27 341.67 185.06 340.93Q184.84 340.18 184.35 339.79Q183.86 339.39 183.04 339.39Q181.82 339.39 181.08 340.26Q180.35 341.12 180.35 342.75V350.00ZM198.11 350.29Q196.77 350.29 195.77 349.71Q194.78 349.14 194.22 348.10L194.15 350.00H191.22V332.96H194.30V339.01Q194.82 338.12 195.81 337.51Q196.79 336.90 198.11 336.90Q199.77 336.90 200.98 337.72Q202.19 338.55 202.85 340.05Q203.51 341.55 203.51 343.59Q203.51 345.63 202.85 347.13Q202.19 348.63 200.98 349.46Q199.77 350.29 198.11 350.29ZM197.42 347.79Q198.74 347.79 199.53 346.68Q200.32 345.56 200.32 343.59Q200.32 341.60 199.54 340.50Q198.76 339.39 197.44 339.39Q196.46 339.39 195.75 339.88Q195.04 340.38 194.67 341.31Q194.30 342.25 194.30 343.59Q194.30 344.89 194.67 345.84Q195.04 346.78 195.74 347.29Q196.43 347.79 197.42 347.79ZM211.22 350.29Q209.32 350.29 207.89 349.46Q206.46 348.63 205.68 347.12Q204.90 345.61 204.90 343.59Q204.90 341.55 205.68 340.05Q206.46 338.55 207.89 337.72Q209.32 336.90 211.22 336.90Q213.11 336.90 214.53 337.72Q215.94 338.55 216.72 340.05Q217.50 341.55 217.50 343.59Q217.50 345.61 216.72 347.12Q215.94 348.63 214.53 349.46Q213.11 350.29 211.22 350.29ZM211.22 347.79Q212.70 347.79 213.51 346.69Q214.31 345.58 214.31 343.59Q214.31 341.62 213.51 340.51Q212.70 339.39 211.22 339.39Q209.73 339.39 208.91 340.51Q208.10 341.62 208.10 343.59Q208.10 345.58 208.91 346.69Q209.73 347.79 211.22 347.79ZM223.36 350.29Q221.34 350.29 220.12 349.36Q218.90 348.44 218.90 346.78Q218.90 345.13 219.93 344.19Q220.96 343.26 223.07 342.85L227.32 342.01Q227.32 340.64 226.70 339.96Q226.07 339.27 224.85 339.27Q223.74 339.27 223.11 339.79Q222.47 340.30 222.23 341.26L219.11 341.12Q219.50 339.08 220.98 337.99Q222.47 336.90 224.85 336.90Q227.58 336.90 228.99 338.28Q230.39 339.66 230.39 342.22V346.88Q230.39 347.38 230.57 347.58Q230.75 347.77 231.11 347.77H231.52V350.00Q231.38 350.05 231.05 350.07Q230.73 350.10 230.39 350.10Q229.60 350.10 228.98 349.84Q228.35 349.59 228.02 348.96Q227.68 348.32 227.68 347.22L227.94 347.41Q227.75 348.25 227.12 348.91Q226.48 349.57 225.52 349.93Q224.56 350.29 223.36 350.29ZM223.98 348.06Q225.02 348.06 225.76 347.65Q226.50 347.24 226.91 346.52Q227.32 345.80 227.32 344.82V344.10L224.01 344.77Q222.98 344.98 222.53 345.40Q222.09 345.82 222.09 346.50Q222.09 347.24 222.58 347.65Q223.07 348.06 223.98 348.06ZM233.08 350.00V337.18H235.96L236.08 340.74L235.82 340.69Q236.10 338.84 236.91 338.01Q237.71 337.18 239.10 337.18H240.28V339.82H239.08Q238.10 339.82 237.45 340.11Q236.80 340.40 236.48 341.01Q236.15 341.62 236.15 342.61V350.00ZM246.98 350.29Q245.34 350.29 244.16 349.47Q242.97 348.66 242.32 347.14Q241.67 345.63 241.67 343.59Q241.67 341.55 242.32 340.04Q242.97 338.53 244.17 337.71Q245.37 336.90 246.98 336.90Q248.32 336.90 249.34 337.45Q250.36 338.00 250.89 339.01V332.96H253.96V350.00H251.03L250.96 348.10Q250.43 349.14 249.38 349.71Q248.32 350.29 246.98 350.29ZM247.91 347.79Q248.87 347.79 249.53 347.31Q250.19 346.83 250.54 345.88Q250.89 344.94 250.89 343.59Q250.89 342.22 250.54 341.29Q250.19 340.35 249.53 339.87Q248.87 339.39 247.91 339.39Q246.52 339.39 245.69 340.51Q244.86 341.62 244.86 343.59Q244.86 345.51 245.69 346.65Q246.52 347.79 247.91 347.79ZM256.84 350.00V337.18H259.91V350.00ZM256.79 335.48V332.74H259.98V335.48ZM262.82 350.00V337.18H265.60L265.72 340.78L265.36 340.64Q265.55 339.30 266.15 338.48Q266.75 337.66 267.62 337.28Q268.48 336.90 269.51 336.90Q270.93 336.90 271.90 337.52Q272.87 338.14 273.38 339.24Q273.88 340.33 273.88 341.77V350.00H270.81V342.75Q270.81 341.67 270.59 340.93Q270.38 340.18 269.88 339.79Q269.39 339.39 268.58 339.39Q267.35 339.39 266.62 340.26Q265.89 341.12 265.89 342.75V350.00ZM282.23 353.89Q280.55 353.89 279.35 353.43Q278.15 352.98 277.42 352.15Q276.69 351.32 276.40 350.24L279.57 350.02Q279.81 350.74 280.40 351.15Q280.98 351.56 282.23 351.56Q283.65 351.56 284.42 350.92Q285.18 350.29 285.18 348.94V347.31Q284.73 348.25 283.72 348.81Q282.71 349.38 281.46 349.38Q279.88 349.38 278.64 348.60Q277.41 347.82 276.71 346.41Q276.02 345.01 276.02 343.16Q276.02 341.31 276.70 339.91Q277.38 338.50 278.61 337.70Q279.83 336.90 281.42 336.90Q282.81 336.90 283.82 337.52Q284.82 338.14 285.28 339.18V337.18H288.28V348.87Q288.28 350.50 287.52 351.63Q286.77 352.76 285.41 353.32Q284.06 353.89 282.23 353.89ZM282.18 346.98Q283.55 346.98 284.37 345.96Q285.18 344.94 285.21 343.14Q285.23 341.94 284.86 341.08Q284.49 340.23 283.80 339.76Q283.12 339.30 282.18 339.30Q280.77 339.30 279.99 340.34Q279.21 341.38 279.21 343.14Q279.21 344.89 280.01 345.93Q280.82 346.98 282.18 346.98Z" fill="#ffffff"/>
<path d="M540 339 L551 328 M543 328 H551 V336" fill="none" stroke="#525252" stroke-width="1.6" stroke-linecap="square"/>
<path d="M28.28 382.00 31.86 372.06H33.49L37.07 382.00H35.76L34.76 379.17H30.59L29.60 382.00ZM31.00 378.00H34.36L32.68 373.11ZM44.79 384.27Q43.99 384.27 43.34 384.00Q42.70 383.74 42.27 383.25Q41.83 382.76 41.68 382.11L42.91 382.03Q43.08 382.55 43.51 382.85Q43.93 383.15 44.79 383.15Q45.79 383.15 46.33 382.74Q46.87 382.34 46.87 381.52V380.32Q46.61 380.91 46.02 381.26Q45.43 381.61 44.70 381.61Q43.76 381.61 43.03 381.15Q42.29 380.68 41.88 379.87Q41.47 379.06 41.47 378.01Q41.47 376.95 41.87 376.14Q42.28 375.34 43.00 374.87Q43.72 374.41 44.65 374.41Q45.43 374.41 46.05 374.78Q46.68 375.14 46.93 375.76V374.58H48.05V381.50Q48.05 382.36 47.66 382.99Q47.26 383.61 46.54 383.94Q45.81 384.27 44.79 384.27ZM44.76 380.49Q45.71 380.49 46.28 379.82Q46.86 379.16 46.87 378.01Q46.89 377.24 46.63 376.69Q46.37 376.13 45.89 375.83Q45.40 375.53 44.76 375.53Q43.78 375.53 43.24 376.20Q42.70 376.86 42.70 378.01Q42.70 379.16 43.25 379.82Q43.81 380.49 44.76 380.49ZM52.29 382.17Q51.14 382.17 50.46 381.64Q49.78 381.10 49.78 380.15Q49.78 379.20 50.34 378.65Q50.90 378.11 52.12 377.88L54.75 377.39Q54.75 376.46 54.31 375.99Q53.87 375.53 52.99 375.53Q52.22 375.53 51.77 375.88Q51.32 376.22 51.16 376.86L49.91 376.76Q50.12 375.71 50.93 375.06Q51.73 374.41 52.99 374.41Q54.42 374.41 55.17 375.22Q55.93 376.02 55.93 377.44V380.50Q55.93 380.75 56.02 380.86Q56.11 380.96 56.32 380.96H56.62V382.00Q56.56 382.01 56.43 382.02Q56.31 382.03 56.17 382.03Q55.66 382.03 55.35 381.87Q55.03 381.71 54.89 381.36Q54.75 381.02 54.75 380.46L54.89 380.49Q54.80 380.96 54.42 381.35Q54.04 381.73 53.48 381.95Q52.92 382.17 52.29 382.17ZM52.40 381.13Q53.14 381.13 53.67 380.85Q54.19 380.56 54.47 380.06Q54.75 379.56 54.75 378.95V378.42L52.35 378.86Q51.59 379.00 51.30 379.29Q51.02 379.58 51.02 380.04Q51.02 380.56 51.39 380.85Q51.76 381.13 52.40 381.13ZM60.72 382.00Q59.71 382.00 59.23 381.54Q58.74 381.08 58.74 380.10V372.84H59.92V380.07Q59.92 380.57 60.14 380.77Q60.37 380.96 60.83 380.96H61.89V382.00ZM57.65 375.62V374.58H61.89V375.62ZM66.39 382.17Q65.34 382.17 64.58 381.69Q63.81 381.22 63.40 380.34Q62.99 379.47 62.99 378.29Q62.99 377.11 63.40 376.25Q63.81 375.38 64.56 374.89Q65.31 374.41 66.33 374.41Q67.30 374.41 68.04 374.87Q68.78 375.32 69.20 376.19Q69.61 377.06 69.61 378.30V378.65H64.22Q64.29 379.84 64.86 380.45Q65.42 381.05 66.39 381.05Q67.12 381.05 67.59 380.71Q68.05 380.36 68.24 379.80L69.50 379.90Q69.20 380.89 68.38 381.53Q67.56 382.17 66.39 382.17ZM64.22 377.62H68.32Q68.24 376.54 67.70 376.04Q67.16 375.53 66.33 375.53Q65.48 375.53 64.93 376.06Q64.37 376.58 64.22 377.62ZM73.98 382.17Q73.01 382.17 72.30 381.69Q71.60 381.22 71.22 380.35Q70.84 379.48 70.84 378.29Q70.84 377.10 71.22 376.23Q71.60 375.36 72.30 374.89Q73.01 374.41 73.98 374.41Q74.72 374.41 75.33 374.73Q75.95 375.04 76.26 375.62V372.06H77.43V382.00H76.37L76.33 380.88Q76.02 381.48 75.39 381.83Q74.76 382.17 73.98 382.17ZM74.21 381.05Q74.87 381.05 75.33 380.71Q75.78 380.38 76.02 379.75Q76.26 379.13 76.26 378.29Q76.26 377.42 76.02 376.81Q75.78 376.19 75.33 375.86Q74.87 375.53 74.21 375.53Q73.23 375.53 72.65 376.27Q72.07 377.00 72.07 378.29Q72.07 379.56 72.65 380.31Q73.23 381.05 74.21 381.05ZM86.07 382.17Q85.05 382.17 84.28 381.69Q83.51 381.22 83.09 380.34Q82.67 379.47 82.67 378.29Q82.67 377.10 83.09 376.23Q83.51 375.36 84.28 374.89Q85.05 374.41 86.07 374.41Q87.09 374.41 87.86 374.89Q88.62 375.36 89.04 376.23Q89.46 377.10 89.46 378.29Q89.46 379.47 89.04 380.34Q88.62 381.22 87.86 381.69Q87.09 382.17 86.07 382.17ZM86.07 381.05Q87.09 381.05 87.66 380.31Q88.23 379.58 88.23 378.29Q88.23 377.00 87.66 376.27Q87.09 375.53 86.07 375.53Q85.05 375.53 84.48 376.27Q83.90 377.00 83.90 378.29Q83.90 379.58 84.48 380.31Q85.05 381.05 86.07 381.05ZM91.20 382.00V374.58H92.27L92.32 376.47L92.18 376.34Q92.32 375.69 92.67 375.26Q93.02 374.83 93.51 374.62Q94.01 374.41 94.58 374.41Q95.44 374.41 95.99 374.79Q96.54 375.17 96.82 375.81Q97.09 376.44 97.09 377.23V382.00H95.91V377.56Q95.91 376.88 95.75 376.41Q95.59 375.94 95.24 375.69Q94.89 375.45 94.33 375.45Q93.48 375.45 92.93 375.99Q92.37 376.53 92.37 377.56V382.00ZM102.73 382.17Q101.96 382.17 101.36 381.83Q100.76 381.48 100.44 380.88L100.39 382.00H99.33V372.06H100.51V375.62Q100.79 375.15 101.37 374.78Q101.96 374.41 102.73 374.41Q103.71 374.41 104.43 374.89Q105.14 375.36 105.53 376.23Q105.92 377.10 105.92 378.29Q105.92 379.48 105.53 380.35Q105.14 381.22 104.43 381.69Q103.71 382.17 102.73 382.17ZM102.66 381.05Q103.60 381.05 104.15 380.31Q104.69 379.56 104.69 378.29Q104.69 377.00 104.15 376.27Q103.60 375.53 102.69 375.53Q102.00 375.53 101.51 375.86Q101.02 376.19 100.77 376.81Q100.51 377.42 100.51 378.29Q100.51 379.13 100.77 379.75Q101.02 380.38 101.51 380.71Q101.99 381.05 102.66 381.05ZM110.56 382.17Q109.54 382.17 108.77 381.69Q108.00 381.22 107.58 380.34Q107.16 379.47 107.16 378.29Q107.16 377.10 107.58 376.23Q108.00 375.36 108.77 374.89Q109.54 374.41 110.56 374.41Q111.58 374.41 112.34 374.89Q113.11 375.36 113.53 376.23Q113.95 377.10 113.95 378.29Q113.95 379.47 113.53 380.34Q113.11 381.22 112.34 381.69Q111.58 382.17 110.56 382.17ZM110.56 381.05Q111.58 381.05 112.15 380.31Q112.71 379.58 112.71 378.29Q112.71 377.00 112.15 376.27Q111.58 375.53 110.56 375.53Q109.54 375.53 108.96 376.27Q108.39 377.00 108.39 378.29Q108.39 379.58 108.96 380.31Q109.54 381.05 110.56 381.05ZM117.68 382.17Q116.54 382.17 115.86 381.64Q115.18 381.10 115.18 380.15Q115.18 379.20 115.74 378.65Q116.30 378.11 117.52 377.88L120.15 377.39Q120.15 376.46 119.71 375.99Q119.27 375.53 118.38 375.53Q117.61 375.53 117.17 375.88Q116.72 376.22 116.55 376.86L115.30 376.76Q115.51 375.71 116.32 375.06Q117.12 374.41 118.38 374.41Q119.81 374.41 120.57 375.22Q121.32 376.02 121.32 377.44V380.50Q121.32 380.75 121.42 380.86Q121.51 380.96 121.72 380.96H122.01V382.00Q121.95 382.01 121.83 382.02Q121.70 382.03 121.56 382.03Q121.06 382.03 120.74 381.87Q120.43 381.71 120.29 381.36Q120.15 381.02 120.15 380.46L120.29 380.49Q120.19 380.96 119.81 381.35Q119.43 381.73 118.87 381.95Q118.31 382.17 117.68 382.17ZM117.80 381.13Q118.54 381.13 119.06 380.85Q119.59 380.56 119.87 380.06Q120.15 379.56 120.15 378.95V378.42L117.74 378.86Q116.98 379.00 116.70 379.29Q116.41 379.58 116.41 380.04Q116.41 380.56 116.78 380.85Q117.15 381.13 117.80 381.13ZM123.40 382.00V374.58H124.43L124.49 376.46L124.38 376.41Q124.52 375.46 124.99 375.02Q125.45 374.58 126.24 374.58H126.97V375.70H126.25Q125.69 375.70 125.32 375.90Q124.95 376.11 124.76 376.50Q124.57 376.90 124.57 377.52V382.00ZM131.33 382.17Q130.37 382.17 129.66 381.69Q128.95 381.22 128.58 380.35Q128.20 379.48 128.20 378.29Q128.20 377.10 128.58 376.23Q128.95 375.36 129.66 374.89Q130.37 374.41 131.33 374.41Q132.08 374.41 132.69 374.73Q133.31 375.04 133.62 375.62V372.06H134.79V382.00H133.73L133.69 380.88Q133.38 381.48 132.75 381.83Q132.12 382.17 131.33 382.17ZM131.57 381.05Q132.23 381.05 132.69 380.71Q133.14 380.38 133.38 379.75Q133.62 379.13 133.62 378.29Q133.62 377.42 133.38 376.81Q133.14 376.19 132.69 375.86Q132.23 375.53 131.57 375.53Q130.59 375.53 130.01 376.27Q129.43 377.00 129.43 378.29Q129.43 379.56 130.01 380.31Q130.59 381.05 131.57 381.05ZM137.03 382.00V374.58H138.21V382.00ZM137.00 373.42V372.05H138.24V373.42ZM140.45 382.00V374.58H141.53L141.57 376.47L141.43 376.34Q141.57 375.69 141.92 375.26Q142.27 374.83 142.76 374.62Q143.26 374.41 143.84 374.41Q144.69 374.41 145.24 374.79Q145.80 375.17 146.07 375.81Q146.34 376.44 146.34 377.23V382.00H145.17V377.56Q145.17 376.88 145.00 376.41Q144.84 375.94 144.49 375.69Q144.14 375.45 143.58 375.45Q142.73 375.45 142.18 375.99Q141.62 376.53 141.62 377.56V382.00ZM151.40 384.27Q150.60 384.27 149.95 384.00Q149.31 383.74 148.88 383.25Q148.44 382.76 148.29 382.11L149.52 382.03Q149.69 382.55 150.12 382.85Q150.54 383.15 151.40 383.15Q152.40 383.15 152.94 382.74Q153.48 382.34 153.48 381.52V380.32Q153.22 380.91 152.63 381.26Q152.04 381.61 151.31 381.61Q150.37 381.61 149.64 381.15Q148.90 380.68 148.49 379.87Q148.08 379.06 148.08 378.01Q148.08 376.95 148.48 376.14Q148.89 375.34 149.61 374.87Q150.33 374.41 151.26 374.41Q152.04 374.41 152.66 374.78Q153.29 375.14 153.54 375.76V374.58H154.66V381.50Q154.66 382.36 154.27 382.99Q153.87 383.61 153.15 383.94Q152.42 384.27 151.40 384.27ZM151.37 380.49Q152.32 380.49 152.89 379.82Q153.47 379.16 153.48 378.01Q153.50 377.24 153.24 376.69Q152.98 376.13 152.50 375.83Q152.01 375.53 151.37 375.53Q150.39 375.53 149.85 376.20Q149.31 376.86 149.31 378.01Q149.31 379.16 149.86 379.82Q150.42 380.49 151.37 380.49ZM161.13 382.00V373.91Q161.13 373.08 161.60 372.57Q162.08 372.06 163.09 372.06H164.26V373.10H163.17Q162.74 373.10 162.52 373.33Q162.30 373.57 162.30 373.99V382.00ZM160.12 375.62V374.58H164.16V375.62ZM167.38 382.00Q166.74 382.00 166.33 381.66Q165.93 381.33 165.93 380.60V372.06H167.10V380.50Q167.10 380.73 167.22 380.85Q167.34 380.96 167.57 380.96H168.21V382.00ZM172.56 382.17Q171.54 382.17 170.77 381.69Q170.00 381.22 169.58 380.34Q169.16 379.47 169.16 378.29Q169.16 377.10 169.58 376.23Q170.00 375.36 170.77 374.89Q171.54 374.41 172.56 374.41Q173.59 374.41 174.35 374.89Q175.11 375.36 175.53 376.23Q175.95 377.10 175.95 378.29Q175.95 379.47 175.53 380.34Q175.11 381.22 174.35 381.69Q173.59 382.17 172.56 382.17ZM172.56 381.05Q173.59 381.05 174.15 380.31Q174.72 379.58 174.72 378.29Q174.72 377.00 174.15 376.27Q173.59 375.53 172.56 375.53Q171.54 375.53 170.97 376.27Q170.39 377.00 170.39 378.29Q170.39 379.58 170.97 380.31Q171.54 381.05 172.56 381.05ZM179.17 382.00 176.88 374.58H178.16L179.90 380.77L181.66 374.58H182.92L184.69 380.77L186.44 374.58H187.73L185.43 382.00H183.95L182.29 376.36L180.64 382.00ZM188.69 384.18 189.36 382.00H188.65V380.42H190.23V381.80L189.39 384.18ZM198.87 382.17Q198.10 382.17 197.50 381.83Q196.90 381.48 196.57 380.88L196.53 382.00H195.47V372.06H196.64V375.62Q196.92 375.15 197.51 374.78Q198.10 374.41 198.87 374.41Q199.85 374.41 200.56 374.89Q201.28 375.36 201.67 376.23Q202.06 377.10 202.06 378.29Q202.06 379.48 201.67 380.35Q201.28 381.22 200.56 381.69Q199.85 382.17 198.87 382.17ZM198.80 381.05Q199.74 381.05 200.28 380.31Q200.83 379.56 200.83 378.29Q200.83 377.00 200.28 376.27Q199.74 375.53 198.83 375.53Q198.14 375.53 197.65 375.86Q197.16 376.19 196.90 376.81Q196.64 377.42 196.64 378.29Q196.64 379.13 196.90 379.75Q197.16 380.38 197.64 380.71Q198.13 381.05 198.80 381.05ZM206.23 382.17Q205.13 382.17 204.46 381.42Q203.80 380.67 203.80 379.35V374.58H204.97V379.03Q204.97 380.11 205.36 380.62Q205.74 381.13 206.54 381.13Q207.42 381.13 207.93 380.56Q208.43 380.00 208.43 379.00V374.58H209.61V382.00H208.49V380.17L208.67 380.26Q208.45 381.17 207.82 381.67Q207.19 382.17 206.23 382.17ZM211.85 382.00V374.58H213.02V382.00ZM211.82 373.42V372.05H213.05V373.42ZM216.72 382.00Q216.08 382.00 215.67 381.66Q215.26 381.33 215.26 380.60V372.06H216.44V380.50Q216.44 380.73 216.56 380.85Q216.68 380.96 216.90 380.96H217.55V382.00ZM221.72 382.00Q220.71 382.00 220.23 381.54Q219.74 381.08 219.74 380.10V372.84H220.92V380.07Q220.92 380.57 221.14 380.77Q221.37 380.96 221.83 380.96H222.89V382.00ZM218.65 375.62V374.58H222.89V375.62ZM229.99 382.17Q228.84 382.17 228.17 381.64Q227.49 381.10 227.49 380.15Q227.49 379.20 228.05 378.65Q228.61 378.11 229.82 377.88L232.46 377.39Q232.46 376.46 232.02 375.99Q231.57 375.53 230.69 375.53Q229.92 375.53 229.47 375.88Q229.03 376.22 228.86 376.86L227.61 376.76Q227.82 375.71 228.63 375.06Q229.43 374.41 230.69 374.41Q232.12 374.41 232.88 375.22Q233.63 376.02 233.63 377.44V380.50Q233.63 380.75 233.72 380.86Q233.81 380.96 234.02 380.96H234.32V382.00Q234.26 382.01 234.14 382.02Q234.01 382.03 233.87 382.03Q233.37 382.03 233.05 381.87Q232.74 381.71 232.60 381.36Q232.46 381.02 232.46 380.46L232.60 380.49Q232.50 380.96 232.12 381.35Q231.74 381.73 231.18 381.95Q230.62 382.17 229.99 382.17ZM230.10 381.13Q230.85 381.13 231.37 380.85Q231.90 380.56 232.18 380.06Q232.46 379.56 232.46 378.95V378.42L230.05 378.86Q229.29 379.00 229.00 379.29Q228.72 379.58 228.72 380.04Q228.72 380.56 229.09 380.85Q229.46 381.13 230.10 381.13ZM238.41 382.17Q237.38 382.17 236.69 381.85Q236.00 381.52 235.63 380.96Q235.26 380.39 235.20 379.66L236.43 379.58Q236.54 380.25 236.99 380.65Q237.43 381.05 238.41 381.05Q239.16 381.05 239.57 380.80Q239.99 380.56 239.99 380.01Q239.99 379.72 239.86 379.52Q239.72 379.33 239.33 379.18Q238.94 379.03 238.18 378.89Q237.15 378.70 236.56 378.40Q235.97 378.11 235.73 377.69Q235.49 377.27 235.49 376.68Q235.49 375.69 236.23 375.05Q236.96 374.41 238.31 374.41Q239.29 374.41 239.91 374.75Q240.53 375.10 240.86 375.64Q241.18 376.19 241.25 376.79L240.02 376.88Q239.99 376.53 239.81 376.22Q239.62 375.91 239.26 375.72Q238.90 375.53 238.28 375.53Q237.48 375.53 237.10 375.84Q236.73 376.15 236.73 376.62Q236.73 376.99 236.87 377.22Q237.02 377.45 237.39 377.60Q237.76 377.74 238.41 377.86Q239.50 378.04 240.11 378.32Q240.73 378.60 240.97 379.01Q241.22 379.42 241.22 380.01Q241.22 381.03 240.43 381.60Q239.64 382.17 238.41 382.17ZM248.49 382.17Q247.34 382.17 246.66 381.64Q245.98 381.10 245.98 380.15Q245.98 379.20 246.54 378.65Q247.10 378.11 248.32 377.88L250.95 377.39Q250.95 376.46 250.51 375.99Q250.07 375.53 249.19 375.53Q248.42 375.53 247.97 375.88Q247.52 376.22 247.35 376.86L246.11 376.76Q246.32 375.71 247.12 375.06Q247.93 374.41 249.19 374.41Q250.61 374.41 251.37 375.22Q252.13 376.02 252.13 377.44V380.50Q252.13 380.75 252.22 380.86Q252.31 380.96 252.52 380.96H252.81V382.00Q252.76 382.01 252.63 382.02Q252.50 382.03 252.36 382.03Q251.86 382.03 251.55 381.87Q251.23 381.71 251.09 381.36Q250.95 381.02 250.95 380.46L251.09 380.49Q250.99 380.96 250.61 381.35Q250.24 381.73 249.68 381.95Q249.12 382.17 248.49 382.17ZM248.60 381.13Q249.34 381.13 249.87 380.85Q250.39 380.56 250.67 380.06Q250.95 379.56 250.95 378.95V378.42L248.54 378.86Q247.79 379.00 247.50 379.29Q247.21 379.58 247.21 380.04Q247.21 380.56 247.58 380.85Q247.95 381.13 248.60 381.13ZM260.40 382.17Q259.38 382.17 258.68 381.85Q257.99 381.52 257.62 380.96Q257.25 380.39 257.19 379.66L258.43 379.58Q258.54 380.25 258.98 380.65Q259.42 381.05 260.40 381.05Q261.16 381.05 261.57 380.80Q261.98 380.56 261.98 380.01Q261.98 379.72 261.85 379.52Q261.72 379.33 261.32 379.18Q260.93 379.03 260.18 378.89Q259.14 378.70 258.55 378.40Q257.96 378.11 257.73 377.69Q257.49 377.27 257.49 376.68Q257.49 375.69 258.22 375.05Q258.96 374.41 260.30 374.41Q261.28 374.41 261.90 374.75Q262.53 375.10 262.85 375.64Q263.17 376.19 263.24 376.79L262.01 376.88Q261.98 376.53 261.80 376.22Q261.62 375.91 261.25 375.72Q260.89 375.53 260.27 375.53Q259.48 375.53 259.10 375.84Q258.72 376.15 258.72 376.62Q258.72 376.99 258.87 377.22Q259.01 377.45 259.38 377.60Q259.76 377.74 260.40 377.86Q261.49 378.04 262.11 378.32Q262.72 378.60 262.97 379.01Q263.21 379.42 263.21 380.01Q263.21 381.03 262.42 381.60Q261.63 382.17 260.40 382.17ZM267.88 382.17Q266.83 382.17 266.06 381.69Q265.30 381.22 264.89 380.34Q264.47 379.47 264.47 378.29Q264.47 377.11 264.89 376.25Q265.30 375.38 266.05 374.89Q266.80 374.41 267.82 374.41Q268.79 374.41 269.53 374.87Q270.27 375.32 270.68 376.19Q271.10 377.06 271.10 378.30V378.65H265.71Q265.78 379.84 266.34 380.45Q266.91 381.05 267.88 381.05Q268.60 381.05 269.07 380.71Q269.54 380.36 269.72 379.80L270.98 379.90Q270.69 380.89 269.87 381.53Q269.05 382.17 267.88 382.17ZM265.71 377.62H269.81Q269.72 376.54 269.18 376.04Q268.65 375.53 267.82 375.53Q266.97 375.53 266.41 376.06Q265.86 376.58 265.71 377.62ZM274.29 382.00Q273.64 382.00 273.24 381.66Q272.83 381.33 272.83 380.60V372.06H274.01V380.50Q274.01 380.73 274.13 380.85Q274.25 380.96 274.47 380.96H275.11V382.00ZM277.30 382.00V373.91Q277.30 373.08 277.77 372.57Q278.25 372.06 279.26 372.06H280.43V373.10H279.34Q278.91 373.10 278.69 373.33Q278.47 373.57 278.47 373.99V382.00ZM276.29 375.62V374.58H280.34V375.62ZM281.60 378.47V377.37H286.23V378.47ZM290.86 382.17Q289.83 382.17 289.06 381.69Q288.30 381.22 287.88 380.34Q287.46 379.47 287.46 378.29Q287.46 377.11 287.88 376.25Q288.30 375.38 289.06 374.89Q289.83 374.41 290.86 374.41Q291.72 374.41 292.38 374.71Q293.05 375.01 293.47 375.59Q293.89 376.16 294.01 376.99L292.78 377.07Q292.66 376.33 292.14 375.93Q291.62 375.53 290.86 375.53Q289.84 375.53 289.27 376.27Q288.69 377.00 288.69 378.29Q288.69 379.58 289.27 380.31Q289.84 381.05 290.86 381.05Q291.62 381.05 292.14 380.63Q292.66 380.21 292.78 379.37L294.01 379.45Q293.89 380.28 293.47 380.89Q293.05 381.50 292.38 381.83Q291.72 382.17 290.86 382.17ZM298.51 382.17Q297.49 382.17 296.72 381.69Q295.95 381.22 295.53 380.34Q295.11 379.47 295.11 378.29Q295.11 377.10 295.53 376.23Q295.95 375.36 296.72 374.89Q297.49 374.41 298.51 374.41Q299.53 374.41 300.29 374.89Q301.06 375.36 301.48 376.23Q301.90 377.10 301.90 378.29Q301.90 379.47 301.48 380.34Q301.06 381.22 300.29 381.69Q299.53 382.17 298.51 382.17ZM298.51 381.05Q299.53 381.05 300.10 380.31Q300.66 379.58 300.66 378.29Q300.66 377.00 300.10 376.27Q299.53 375.53 298.51 375.53Q297.49 375.53 296.91 376.27Q296.34 377.00 296.34 378.29Q296.34 379.58 296.91 380.31Q297.49 381.05 298.51 381.05ZM303.63 382.00V374.58H304.71L304.75 376.47L304.61 376.34Q304.75 375.69 305.10 375.26Q305.45 374.83 305.95 374.62Q306.45 374.41 307.02 374.41Q307.87 374.41 308.43 374.79Q308.98 375.17 309.25 375.81Q309.53 376.44 309.53 377.23V382.00H308.35V377.56Q308.35 376.88 308.19 376.41Q308.03 375.94 307.68 375.69Q307.33 375.45 306.77 375.45Q305.91 375.45 305.36 375.99Q304.81 376.53 304.81 377.56V382.00ZM314.48 382.00Q313.47 382.00 312.99 381.54Q312.51 381.08 312.51 380.10V372.84H313.68V380.07Q313.68 380.57 313.91 380.77Q314.13 380.96 314.59 380.96H315.66V382.00ZM311.42 375.62V374.58H315.66V375.62ZM319.26 382.17Q318.11 382.17 317.43 381.64Q316.75 381.10 316.75 380.15Q316.75 379.20 317.31 378.65Q317.87 378.11 319.09 377.88L321.72 377.39Q321.72 376.46 321.28 375.99Q320.84 375.53 319.96 375.53Q319.19 375.53 318.74 375.88Q318.29 376.22 318.12 376.86L316.88 376.76Q317.09 375.71 317.89 375.06Q318.70 374.41 319.96 374.41Q321.38 374.41 322.14 375.22Q322.90 376.02 322.90 377.44V380.50Q322.90 380.75 322.99 380.86Q323.08 380.96 323.29 380.96H323.58V382.00Q323.53 382.01 323.40 382.02Q323.27 382.03 323.13 382.03Q322.63 382.03 322.31 381.87Q322.00 381.71 321.86 381.36Q321.72 381.02 321.72 380.46L321.86 380.49Q321.76 380.96 321.38 381.35Q321.01 381.73 320.45 381.95Q319.89 382.17 319.26 382.17ZM319.37 381.13Q320.11 381.13 320.63 380.85Q321.16 380.56 321.44 380.06Q321.72 379.56 321.72 378.95V378.42L319.31 378.86Q318.56 379.00 318.27 379.29Q317.98 379.58 317.98 380.04Q317.98 380.56 318.35 380.85Q318.72 381.13 319.37 381.13ZM324.97 382.00V374.58H326.14V382.00ZM324.94 373.42V372.05H326.17V373.42ZM328.38 382.00V374.58H329.46L329.50 376.47L329.36 376.34Q329.50 375.69 329.85 375.26Q330.20 374.83 330.70 374.62Q331.20 374.41 331.77 374.41Q332.63 374.41 333.18 374.79Q333.73 375.17 334.00 375.81Q334.28 376.44 334.28 377.23V382.00H333.10V377.56Q333.10 376.88 332.94 376.41Q332.78 375.94 332.43 375.69Q332.08 375.45 331.52 375.45Q330.67 375.45 330.11 375.99Q329.56 376.53 329.56 377.56V382.00ZM339.42 382.17Q338.37 382.17 337.60 381.69Q336.84 381.22 336.43 380.34Q336.01 379.47 336.01 378.29Q336.01 377.11 336.43 376.25Q336.84 375.38 337.59 374.89Q338.34 374.41 339.36 374.41Q340.33 374.41 341.07 374.87Q341.81 375.32 342.22 376.19Q342.64 377.06 342.64 378.30V378.65H337.25Q337.32 379.84 337.88 380.45Q338.45 381.05 339.42 381.05Q340.14 381.05 340.61 380.71Q341.08 380.36 341.26 379.80L342.52 379.90Q342.23 380.89 341.41 381.53Q340.59 382.17 339.42 382.17ZM337.25 377.62H341.35Q341.26 376.54 340.72 376.04Q340.19 375.53 339.36 375.53Q338.51 375.53 337.95 376.06Q337.40 376.58 337.25 377.62ZM347.00 382.17Q346.04 382.17 345.33 381.69Q344.62 381.22 344.25 380.35Q343.87 379.48 343.87 378.29Q343.87 377.10 344.25 376.23Q344.62 375.36 345.33 374.89Q346.04 374.41 347.00 374.41Q347.75 374.41 348.36 374.73Q348.98 375.04 349.29 375.62V372.06H350.46V382.00H349.40L349.36 380.88Q349.05 381.48 348.42 381.83Q347.79 382.17 347.00 382.17ZM347.24 381.05Q347.90 381.05 348.35 380.71Q348.81 380.38 349.05 379.75Q349.29 379.13 349.29 378.29Q349.29 377.42 349.05 376.81Q348.81 376.19 348.35 375.86Q347.90 375.53 347.24 375.53Q346.26 375.53 345.68 376.27Q345.10 377.00 345.10 378.29Q345.10 379.56 345.68 380.31Q346.26 381.05 347.24 381.05ZM356.20 384.10V374.58H357.29L357.32 376.18L357.15 376.09Q357.43 375.27 358.08 374.84Q358.74 374.41 359.59 374.41Q360.70 374.41 361.40 374.96Q362.11 375.50 362.45 376.39Q362.80 377.27 362.80 378.29Q362.80 379.31 362.45 380.19Q362.11 381.08 361.40 381.62Q360.70 382.17 359.59 382.17Q359.02 382.17 358.52 381.97Q358.02 381.78 357.68 381.43Q357.34 381.08 357.21 380.60L357.38 380.40V384.10ZM359.48 381.05Q360.44 381.05 361.00 380.32Q361.56 379.59 361.56 378.29Q361.56 376.99 361.00 376.26Q360.44 375.53 359.48 375.53Q358.83 375.53 358.36 375.84Q357.90 376.15 357.64 376.76Q357.38 377.38 357.38 378.29Q357.38 379.20 357.63 379.82Q357.88 380.43 358.36 380.74Q358.83 381.05 359.48 381.05ZM367.43 382.17Q366.41 382.17 365.64 381.69Q364.87 381.22 364.45 380.34Q364.03 379.47 364.03 378.29Q364.03 377.10 364.45 376.23Q364.87 375.36 365.64 374.89Q366.41 374.41 367.43 374.41Q368.45 374.41 369.21 374.89Q369.98 375.36 370.40 376.23Q370.82 377.10 370.82 378.29Q370.82 379.47 370.40 380.34Q369.98 381.22 369.21 381.69Q368.45 382.17 367.43 382.17ZM367.43 381.05Q368.45 381.05 369.02 380.31Q369.59 379.58 369.59 378.29Q369.59 377.00 369.02 376.27Q368.45 375.53 367.43 375.53Q366.41 375.53 365.83 376.27Q365.26 377.00 365.26 378.29Q365.26 379.58 365.83 380.31Q366.41 381.05 367.43 381.05ZM372.55 382.00V374.58H373.59L373.65 376.46L373.53 376.41Q373.67 375.46 374.14 375.02Q374.61 374.58 375.40 374.58H376.12V375.70H375.41Q374.85 375.70 374.48 375.90Q374.11 376.11 373.92 376.50Q373.73 376.90 373.73 377.52V382.00ZM380.58 382.00Q379.57 382.00 379.08 381.54Q378.60 381.08 378.60 380.10V372.84H379.78V380.07Q379.78 380.57 380.00 380.77Q380.23 380.96 380.69 380.96H381.75V382.00ZM377.51 375.62V374.58H381.75V375.62ZM385.35 382.17Q384.20 382.17 383.52 381.64Q382.84 381.10 382.84 380.15Q382.84 379.20 383.40 378.65Q383.96 378.11 385.18 377.88L387.81 377.39Q387.81 376.46 387.37 375.99Q386.93 375.53 386.05 375.53Q385.28 375.53 384.83 375.88Q384.38 376.22 384.22 376.86L382.97 376.76Q383.18 375.71 383.98 375.06Q384.79 374.41 386.05 374.41Q387.48 374.41 388.23 375.22Q388.99 376.02 388.99 377.44V380.50Q388.99 380.75 389.08 380.86Q389.17 380.96 389.38 380.96H389.68V382.00Q389.62 382.01 389.49 382.02Q389.37 382.03 389.23 382.03Q388.72 382.03 388.41 381.87Q388.09 381.71 387.95 381.36Q387.81 381.02 387.81 380.46L387.95 380.49Q387.86 380.96 387.48 381.35Q387.10 381.73 386.54 381.95Q385.98 382.17 385.35 382.17ZM385.46 381.13Q386.20 381.13 386.73 380.85Q387.25 380.56 387.53 380.06Q387.81 379.56 387.81 378.95V378.42L385.41 378.86Q384.65 379.00 384.36 379.29Q384.08 379.58 384.08 380.04Q384.08 380.56 384.45 380.85Q384.82 381.13 385.46 381.13ZM392.52 382.00Q391.87 382.00 391.47 381.66Q391.06 381.33 391.06 380.60V372.06H392.24V380.50Q392.24 380.73 392.36 380.85Q392.48 380.96 392.70 380.96H393.34V382.00ZM394.30 382.00V380.42H395.88V382.00Z" fill="#a1a1a1"/>
<rect x="28" y="420" width="524" height="1" fill="#313131"/>
<path d="M28.72 442.00V433.48H29.75V437.62L29.22 437.21H33.98L33.45 437.62V433.48H34.48V442.00H33.45V437.81L33.98 438.22H29.22L29.75 437.81V442.00ZM38.76 442.00V434.49H36.16V433.48H42.40V434.49H39.80V442.00ZM46.50 441.04 44.90 434.44H44.99V442.00H43.96V433.48H45.52L47.20 440.49H46.72L48.40 433.48H49.96V442.00H48.93V434.44H49.02L47.42 441.04ZM52.24 442.00V433.48H53.27V441.52L52.76 440.99H57.52V442.00Z" fill="#737373"/>
</svg>