<svg xmlns="http://www.w3.org/2000/svg" viewBox="0 0 580 190" width="580" height="190" role="img" aria-label="Passport Seva Kendra — A public-service workflow, modelled properly on the platform.">
<rect width="580" height="190" fill="#fcfcfd"/>
<rect x="0.5" y="0.5" width="579" height="189" rx="14" fill="#ffffff" stroke="#e5e5ea"/>
<circle cx="32" cy="34" r="4" fill="#d3d3db"/>
<path d="M46.08 38.00V31.02H47.20V37.06H50.38V38.00ZM54.40 38.00V37.15H56.04V31.87H54.40V31.02H58.80V31.87H57.16V37.15H58.80V38.00ZM64.42 38.00 62.45 31.02H63.66L64.58 34.54L65.19 36.91H65.25L65.86 34.54L66.79 31.02H67.95L65.98 38.00ZM71.66 38.00V31.02H76.03V31.96H72.78V33.99H75.91V34.93H72.78V37.06H76.03V38.00Z" fill="#76768a"/>
<path d="M539 40 L552 27 M544 27 H552 V35" fill="none" stroke="#d3d3db" stroke-width="1.6" stroke-linecap="square"/>
<path d="M29.52 84.00V67.90H36.14Q37.66 67.90 38.82 68.51Q39.98 69.12 40.64 70.22Q41.29 71.33 41.29 72.84V73.17Q41.29 74.66 40.62 75.78Q39.94 76.89 38.78 77.50Q37.61 78.11 36.14 78.11H32.55V84.00ZM32.55 75.35H35.84Q36.92 75.35 37.59 74.75Q38.26 74.16 38.26 73.12V72.89Q38.26 71.86 37.59 71.26Q36.92 70.66 35.84 70.66H32.55ZM46.74 84.32Q45.52 84.32 44.56 83.90Q43.59 83.47 43.03 82.65Q42.47 81.84 42.47 80.67Q42.47 79.49 43.03 78.70Q43.59 77.91 44.59 77.50Q45.59 77.10 46.88 77.10H50.01V76.46Q50.01 75.65 49.50 75.13Q49.00 74.62 47.89 74.62Q46.81 74.62 46.28 75.11Q45.75 75.61 45.59 76.39L42.93 75.49Q43.20 74.62 43.81 73.89Q44.42 73.17 45.44 72.72Q46.47 72.27 47.94 72.27Q50.19 72.27 51.51 73.40Q52.82 74.52 52.82 76.66V80.92Q52.82 81.61 53.46 81.61H54.38V84.00H52.45Q51.60 84.00 51.04 83.59Q50.49 83.17 50.49 82.48V82.46H50.06Q49.96 82.73 49.64 83.18Q49.32 83.63 48.63 83.98Q47.94 84.32 46.74 84.32ZM47.25 81.98Q48.47 81.98 49.24 81.30Q50.01 80.62 50.01 79.49V79.26H47.09Q46.28 79.26 45.82 79.61Q45.36 79.95 45.36 80.57Q45.36 81.19 45.85 81.59Q46.33 81.98 47.25 81.98ZM60.93 84.32Q58.70 84.32 57.28 83.36Q55.85 82.39 55.55 80.60L58.22 79.91Q58.38 80.71 58.76 81.17Q59.14 81.63 59.70 81.83Q60.27 82.02 60.93 82.02Q61.95 82.02 62.43 81.67Q62.91 81.31 62.91 80.78Q62.91 80.25 62.45 79.96Q61.99 79.68 60.98 79.49L60.34 79.38Q59.14 79.15 58.15 78.74Q57.16 78.34 56.56 77.63Q55.97 76.92 55.97 75.79Q55.97 74.09 57.21 73.18Q58.45 72.27 60.47 72.27Q62.38 72.27 63.65 73.12Q64.91 73.97 65.30 75.35L62.61 76.18Q62.43 75.31 61.87 74.94Q61.30 74.57 60.47 74.57Q59.65 74.57 59.21 74.86Q58.77 75.14 58.77 75.65Q58.77 76.20 59.23 76.47Q59.69 76.73 60.47 76.87L61.12 76.98Q62.41 77.22 63.45 77.59Q64.50 77.97 65.11 78.68Q65.72 79.38 65.72 80.57Q65.72 82.37 64.42 83.34Q63.12 84.32 60.93 84.32ZM72.69 84.32Q70.45 84.32 69.03 83.36Q67.60 82.39 67.30 80.60L69.97 79.91Q70.13 80.71 70.51 81.17Q70.89 81.63 71.46 81.83Q72.02 82.02 72.69 82.02Q73.70 82.02 74.18 81.67Q74.66 81.31 74.66 80.78Q74.66 80.25 74.20 79.96Q73.74 79.68 72.73 79.49L72.09 79.38Q70.89 79.15 69.90 78.74Q68.91 78.34 68.32 77.63Q67.72 76.92 67.72 75.79Q67.72 74.09 68.96 73.18Q70.20 72.27 72.23 72.27Q74.13 72.27 75.40 73.12Q76.66 73.97 77.06 75.35L74.36 76.18Q74.18 75.31 73.62 74.94Q73.05 74.57 72.23 74.57Q71.40 74.57 70.96 74.86Q70.52 75.14 70.52 75.65Q70.52 76.20 70.98 76.47Q71.44 76.73 72.23 76.87L72.87 76.98Q74.16 77.22 75.20 77.59Q76.25 77.97 76.86 78.68Q77.47 79.38 77.47 80.57Q77.47 82.37 76.17 83.34Q74.87 84.32 72.69 84.32ZM79.70 88.60V72.59H82.55V73.97H82.97Q83.36 73.31 84.18 72.79Q85.01 72.27 86.55 72.27Q87.93 72.27 89.11 72.95Q90.28 73.63 90.99 74.94Q91.71 76.25 91.71 78.11V78.48Q91.71 80.34 90.99 81.65Q90.28 82.97 89.11 83.64Q87.93 84.32 86.55 84.32Q85.52 84.32 84.82 84.08Q84.12 83.84 83.69 83.46Q83.26 83.08 83.01 82.69H82.60V88.60ZM85.68 81.79Q87.04 81.79 87.92 80.93Q88.81 80.07 88.81 78.41V78.18Q88.81 76.53 87.91 75.66Q87.01 74.80 85.68 74.80Q84.35 74.80 83.45 75.66Q82.55 76.53 82.55 78.18V78.41Q82.55 80.07 83.45 80.93Q84.35 81.79 85.68 81.79ZM99.50 84.32Q97.80 84.32 96.44 83.63Q95.09 82.94 94.30 81.63Q93.52 80.32 93.52 78.48V78.11Q93.52 76.27 94.30 74.96Q95.09 73.65 96.44 72.96Q97.80 72.27 99.50 72.27Q101.20 72.27 102.56 72.96Q103.92 73.65 104.70 74.96Q105.48 76.27 105.48 78.11V78.48Q105.48 80.32 104.70 81.63Q103.92 82.94 102.56 83.63Q101.20 84.32 99.50 84.32ZM99.50 81.75Q100.84 81.75 101.71 80.88Q102.58 80.02 102.58 78.41V78.18Q102.58 76.57 101.72 75.71Q100.86 74.85 99.50 74.85Q98.17 74.85 97.29 75.71Q96.42 76.57 96.42 78.18V78.41Q96.42 80.02 97.29 80.88Q98.17 81.75 99.50 81.75ZM107.85 84.00V72.59H110.70V73.88H111.12Q111.37 73.19 111.96 72.87Q112.54 72.55 113.32 72.55H114.70V75.12H113.28Q112.17 75.12 111.46 75.71Q110.75 76.30 110.75 77.51V84.00ZM121.03 84.00Q119.90 84.00 119.20 83.30Q118.50 82.60 118.50 81.42V74.98H115.65V72.59H118.50V69.05H121.40V72.59H124.52V74.98H121.40V80.92Q121.40 81.61 122.04 81.61H124.25V84.00ZM137.88 84.32Q136.02 84.32 134.60 83.66Q133.17 82.99 132.36 81.75Q131.56 80.50 131.56 78.76V78.11H134.55V78.76Q134.55 80.20 135.45 80.93Q136.34 81.65 137.88 81.65Q139.45 81.65 140.22 81.03Q140.99 80.41 140.99 79.45Q140.99 78.78 140.61 78.36Q140.23 77.95 139.51 77.69Q138.78 77.42 137.75 77.19L137.22 77.08Q135.56 76.71 134.38 76.15Q133.19 75.58 132.56 74.66Q131.93 73.74 131.93 72.27Q131.93 70.80 132.63 69.75Q133.33 68.70 134.61 68.14Q135.88 67.58 137.61 67.58Q139.33 67.58 140.68 68.16Q142.02 68.75 142.80 69.91Q143.57 71.07 143.57 72.82V73.51H140.58V72.82Q140.58 71.90 140.22 71.34Q139.86 70.78 139.20 70.51Q138.53 70.25 137.61 70.25Q136.23 70.25 135.57 70.76Q134.92 71.28 134.92 72.18Q134.92 72.78 135.23 73.19Q135.54 73.60 136.16 73.88Q136.78 74.16 137.75 74.36L138.28 74.48Q140.00 74.85 141.28 75.42Q142.55 76.00 143.27 76.94Q143.98 77.88 143.98 79.35Q143.98 80.83 143.23 81.94Q142.48 83.06 141.12 83.69Q139.75 84.32 137.88 84.32ZM151.22 84.32Q149.52 84.32 148.22 83.60Q146.92 82.87 146.20 81.55Q145.47 80.23 145.47 78.43V78.16Q145.47 76.36 146.19 75.04Q146.90 73.72 148.19 72.99Q149.48 72.27 151.18 72.27Q152.86 72.27 154.10 73.02Q155.34 73.77 156.03 75.09Q156.72 76.41 156.72 78.16V79.15H148.42Q148.46 80.32 149.29 81.06Q150.12 81.79 151.32 81.79Q152.53 81.79 153.11 81.26Q153.68 80.73 153.98 80.09L156.35 81.33Q156.03 81.93 155.42 82.63Q154.81 83.33 153.80 83.83Q152.79 84.32 151.22 84.32ZM148.44 76.98H153.78Q153.68 76.00 152.98 75.40Q152.28 74.80 151.15 74.80Q149.98 74.80 149.29 75.40Q148.60 76.00 148.44 76.98ZM161.39 84.00 157.75 72.59H160.84L163.48 81.88H163.90L166.54 72.59H169.62L165.99 84.00ZM174.84 84.32Q173.62 84.32 172.66 83.90Q171.69 83.47 171.13 82.65Q170.56 81.84 170.56 80.67Q170.56 79.49 171.13 78.70Q171.69 77.91 172.69 77.50Q173.69 77.10 174.98 77.10H178.11V76.46Q178.11 75.65 177.60 75.13Q177.10 74.62 175.99 74.62Q174.91 74.62 174.38 75.11Q173.85 75.61 173.69 76.39L171.02 75.49Q171.30 74.62 171.91 73.89Q172.52 73.17 173.54 72.72Q174.57 72.27 176.04 72.27Q178.29 72.27 179.60 73.40Q180.91 74.52 180.91 76.66V80.92Q180.91 81.61 181.56 81.61H182.48V84.00H180.55Q179.70 84.00 179.14 83.59Q178.59 83.17 178.59 82.48V82.46H178.15Q178.06 82.73 177.74 83.18Q177.42 83.63 176.73 83.98Q176.04 84.32 174.84 84.32ZM175.35 81.98Q176.57 81.98 177.34 81.30Q178.11 80.62 178.11 79.49V79.26H175.19Q174.38 79.26 173.92 79.61Q173.46 79.95 173.46 80.57Q173.46 81.19 173.95 81.59Q174.43 81.98 175.35 81.98ZM189.74 84.00V67.90H192.78V74.29H193.19L198.42 67.90H202.30L195.59 75.84L202.53 84.00H198.53L193.19 77.47H192.78V84.00ZM209.13 84.32Q207.43 84.32 206.13 83.60Q204.83 82.87 204.11 81.55Q203.38 80.23 203.38 78.43V78.16Q203.38 76.36 204.10 75.04Q204.81 73.72 206.10 72.99Q207.38 72.27 209.09 72.27Q210.77 72.27 212.01 73.02Q213.25 73.77 213.94 75.09Q214.63 76.41 214.63 78.16V79.15H206.33Q206.37 80.32 207.20 81.06Q208.03 81.79 209.22 81.79Q210.44 81.79 211.02 81.26Q211.59 80.73 211.89 80.09L214.26 81.33Q213.94 81.93 213.33 82.63Q212.72 83.33 211.71 83.83Q210.70 84.32 209.13 84.32ZM206.35 76.98H211.69Q211.59 76.00 210.89 75.40Q210.19 74.80 209.06 74.80Q207.89 74.80 207.20 75.40Q206.51 76.00 206.35 76.98ZM216.91 84.00V72.59H219.76V74.09H220.17Q220.45 73.49 221.21 72.95Q221.97 72.41 223.51 72.41Q224.84 72.41 225.84 73.02Q226.84 73.63 227.39 74.70Q227.95 75.77 227.95 77.19V84.00H225.05V77.42Q225.05 76.13 224.42 75.49Q223.78 74.85 222.61 74.85Q221.28 74.85 220.54 75.73Q219.80 76.62 219.80 78.20V84.00ZM235.37 84.32Q234.02 84.32 232.83 83.64Q231.65 82.97 230.94 81.65Q230.22 80.34 230.22 78.48V78.11Q230.22 76.25 230.94 74.94Q231.65 73.63 232.82 72.95Q233.99 72.27 235.37 72.27Q236.41 72.27 237.11 72.51Q237.81 72.75 238.25 73.12Q238.69 73.49 238.92 73.90H239.33V67.90H242.23V84.00H239.38V82.62H238.96Q238.57 83.26 237.75 83.79Q236.94 84.32 235.37 84.32ZM236.25 81.79Q237.58 81.79 238.48 80.93Q239.38 80.07 239.38 78.41V78.18Q239.38 76.53 238.49 75.66Q237.60 74.80 236.25 74.80Q234.91 74.80 234.02 75.66Q233.12 76.53 233.12 78.18V78.41Q233.12 80.07 234.02 80.93Q234.91 81.79 236.25 81.79ZM245.15 84.00V72.59H248.00V73.88H248.41Q248.67 73.19 249.25 72.87Q249.84 72.55 250.62 72.55H252.00V75.12H250.58Q249.47 75.12 248.76 75.71Q248.05 76.30 248.05 77.51V84.00ZM257.50 84.32Q256.28 84.32 255.31 83.90Q254.35 83.47 253.78 82.65Q253.22 81.84 253.22 80.67Q253.22 79.49 253.78 78.70Q254.35 77.91 255.35 77.50Q256.35 77.10 257.64 77.10H260.76V76.46Q260.76 75.65 260.26 75.13Q259.75 74.62 258.65 74.62Q257.57 74.62 257.04 75.11Q256.51 75.61 256.35 76.39L253.68 75.49Q253.96 74.62 254.57 73.89Q255.17 73.17 256.20 72.72Q257.22 72.27 258.69 72.27Q260.95 72.27 262.26 73.40Q263.57 74.52 263.57 76.66V80.92Q263.57 81.61 264.21 81.61H265.13V84.00H263.20Q262.35 84.00 261.80 83.59Q261.25 83.17 261.25 82.48V82.46H260.81Q260.72 82.73 260.40 83.18Q260.07 83.63 259.38 83.98Q258.69 84.32 257.50 84.32ZM258.00 81.98Q259.22 81.98 259.99 81.30Q260.76 80.62 260.76 79.49V79.26H257.84Q257.04 79.26 256.58 79.61Q256.12 79.95 256.12 80.57Q256.12 81.19 256.60 81.59Q257.08 81.98 258.00 81.98Z" fill="#101017"/>
<path d="M28.29 114.00 31.09 104.20H33.75L36.54 114.00H34.99L34.34 111.69H30.51L29.86 114.00ZM30.88 110.29H33.96L32.54 105.14H32.31ZM41.48 116.80V107.10H42.90V108.09H43.12Q43.39 107.63 43.92 107.27Q44.46 106.90 45.47 106.90Q46.34 106.90 47.06 107.32Q47.78 107.74 48.22 108.53Q48.66 109.32 48.66 110.44V110.65Q48.66 111.77 48.23 112.56Q47.80 113.36 47.07 113.78Q46.34 114.20 45.47 114.20Q44.80 114.20 44.34 114.03Q43.88 113.86 43.60 113.60Q43.32 113.34 43.15 113.06H42.92V116.80ZM45.05 112.94Q46.00 112.94 46.61 112.33Q47.21 111.73 47.21 110.61V110.49Q47.21 109.38 46.60 108.78Q45.99 108.18 45.05 108.18Q44.13 108.18 43.52 108.78Q42.91 109.38 42.91 110.49V110.61Q42.91 111.73 43.52 112.33Q44.13 112.94 45.05 112.94ZM53.10 114.13Q52.32 114.13 51.70 113.78Q51.09 113.43 50.74 112.78Q50.39 112.14 50.39 111.24V107.10H51.83V111.14Q51.83 112.04 52.28 112.47Q52.72 112.89 53.52 112.89Q54.40 112.89 54.94 112.30Q55.48 111.70 55.48 110.58V107.10H56.92V114.00H55.51V112.96H55.29Q55.09 113.38 54.59 113.75Q54.08 114.13 53.10 114.13ZM63.04 114.20Q62.03 114.20 61.50 113.83Q60.96 113.47 60.69 113.02H60.47V114.00H59.05V104.20H60.49V108.04H60.72Q60.89 107.76 61.17 107.50Q61.45 107.24 61.91 107.07Q62.37 106.90 63.04 106.90Q63.91 106.90 64.64 107.32Q65.37 107.74 65.80 108.54Q66.23 109.34 66.23 110.44V110.65Q66.23 111.77 65.79 112.56Q65.35 113.36 64.63 113.78Q63.91 114.20 63.04 114.20ZM62.62 112.94Q63.56 112.94 64.17 112.33Q64.78 111.73 64.78 110.61V110.49Q64.78 109.38 64.18 108.78Q63.57 108.18 62.62 108.18Q61.70 108.18 61.09 108.78Q60.48 109.38 60.48 110.49V110.61Q60.48 111.73 61.09 112.33Q61.70 112.94 62.62 112.94ZM68.03 114.00V104.20H69.47V114.00ZM71.61 114.00V107.10H73.05V114.00ZM72.34 106.16Q71.92 106.16 71.63 105.89Q71.34 105.61 71.34 105.18Q71.34 104.75 71.63 104.47Q71.92 104.20 72.34 104.20Q72.77 104.20 73.05 104.47Q73.33 104.75 73.33 105.18Q73.33 105.61 73.05 105.89Q72.77 106.16 72.34 106.16ZM78.40 114.20Q77.41 114.20 76.60 113.78Q75.80 113.36 75.33 112.56Q74.86 111.76 74.86 110.64V110.46Q74.86 109.34 75.33 108.55Q75.80 107.76 76.60 107.33Q77.41 106.90 78.40 106.90Q79.39 106.90 80.09 107.27Q80.79 107.63 81.22 108.23Q81.65 108.83 81.77 109.56L80.37 109.86Q80.30 109.39 80.08 109.02Q79.86 108.64 79.45 108.41Q79.04 108.19 78.43 108.19Q77.83 108.19 77.34 108.46Q76.86 108.74 76.58 109.25Q76.30 109.76 76.30 110.49V110.61Q76.30 111.34 76.58 111.86Q76.86 112.38 77.34 112.64Q77.83 112.91 78.43 112.91Q79.34 112.91 79.81 112.44Q80.29 111.97 80.42 111.24L81.82 111.56Q81.65 112.28 81.22 112.88Q80.79 113.48 80.09 113.84Q79.39 114.20 78.40 114.20ZM83.45 111.07V109.76H87.60V111.07ZM92.51 114.20Q91.20 114.20 90.33 113.61Q89.46 113.02 89.26 111.83L90.61 111.51Q90.72 112.08 90.99 112.42Q91.25 112.75 91.65 112.89Q92.05 113.03 92.51 113.03Q93.20 113.03 93.57 112.77Q93.94 112.50 93.94 112.08Q93.94 111.66 93.59 111.47Q93.24 111.27 92.55 111.14L92.08 111.06Q91.38 110.93 90.80 110.70Q90.23 110.46 89.89 110.04Q89.56 109.62 89.56 108.96Q89.56 107.98 90.29 107.44Q91.01 106.90 92.22 106.90Q93.38 106.90 94.13 107.43Q94.88 107.95 95.10 108.85L93.76 109.23Q93.63 108.60 93.23 108.34Q92.82 108.08 92.22 108.08Q91.63 108.08 91.29 108.30Q90.96 108.51 90.96 108.90Q90.96 109.32 91.29 109.52Q91.62 109.72 92.18 109.81L92.67 109.90Q93.41 110.02 94.02 110.25Q94.64 110.47 95.00 110.89Q95.35 111.31 95.35 112.01Q95.35 113.05 94.58 113.62Q93.81 114.20 92.51 114.20ZM100.20 114.20Q99.15 114.20 98.36 113.75Q97.58 113.31 97.14 112.51Q96.70 111.70 96.70 110.64V110.47Q96.70 109.39 97.13 108.59Q97.57 107.78 98.34 107.34Q99.12 106.90 100.14 106.90Q101.14 106.90 101.88 107.34Q102.63 107.78 103.05 108.57Q103.47 109.35 103.47 110.40V110.95H98.17Q98.20 111.86 98.78 112.40Q99.36 112.94 100.23 112.94Q101.04 112.94 101.45 112.57Q101.86 112.21 102.09 111.73L103.28 112.35Q103.08 112.74 102.71 113.17Q102.34 113.61 101.74 113.90Q101.14 114.20 100.20 114.20ZM98.18 109.84H102.00Q101.95 109.06 101.44 108.62Q100.94 108.18 100.13 108.18Q99.32 108.18 98.81 108.62Q98.29 109.06 98.18 109.84ZM105.21 114.00V107.10H106.62V107.91H106.85Q107.02 107.48 107.39 107.27Q107.76 107.07 108.30 107.07H109.13V108.37H108.25Q107.55 108.37 107.10 108.76Q106.65 109.14 106.65 109.94V114.00ZM112.22 114.00 109.90 107.10H111.43L113.26 112.94H113.48L115.32 107.10H116.84L114.52 114.00ZM118.24 114.00V107.10H119.69V114.00ZM118.97 106.16Q118.55 106.16 118.27 105.89Q117.98 105.61 117.98 105.18Q117.98 104.75 118.27 104.47Q118.55 104.20 118.97 104.20Q119.41 104.20 119.69 104.47Q119.97 104.75 119.97 105.18Q119.97 105.61 119.69 105.89Q119.41 106.16 118.97 106.16ZM125.03 114.20Q124.04 114.20 123.24 113.78Q122.43 113.36 121.96 112.56Q121.49 111.76 121.49 110.64V110.46Q121.49 109.34 121.96 108.55Q122.43 107.76 123.24 107.33Q124.04 106.90 125.03 106.90Q126.03 106.90 126.73 107.27Q127.43 107.63 127.86 108.23Q128.28 108.83 128.41 109.56L127.01 109.86Q126.94 109.39 126.71 109.02Q126.49 108.64 126.08 108.41Q125.68 108.19 125.06 108.19Q124.46 108.19 123.98 108.46Q123.49 108.74 123.21 109.25Q122.93 109.76 122.93 110.49V110.61Q122.93 111.34 123.21 111.86Q123.49 112.38 123.98 112.64Q124.46 112.91 125.06 112.91Q125.97 112.91 126.45 112.44Q126.92 111.97 127.05 111.24L128.45 111.56Q128.28 112.28 127.86 112.88Q127.43 113.48 126.73 113.84Q126.03 114.20 125.03 114.20ZM133.28 114.20Q132.23 114.20 131.45 113.75Q130.66 113.31 130.22 112.51Q129.78 111.70 129.78 110.64V110.47Q129.78 109.39 130.21 108.59Q130.65 107.78 131.43 107.34Q132.20 106.90 133.22 106.90Q134.22 106.90 134.97 107.34Q135.72 107.78 136.14 108.57Q136.56 109.35 136.56 110.40V110.95H131.25Q131.28 111.86 131.86 112.40Q132.44 112.94 133.31 112.94Q134.12 112.94 134.53 112.57Q134.95 112.21 135.17 111.73L136.36 112.35Q136.16 112.74 135.79 113.17Q135.42 113.61 134.82 113.90Q134.22 114.20 133.28 114.20ZM131.26 109.84H135.09Q135.03 109.06 134.53 108.62Q134.02 108.18 133.21 108.18Q132.40 108.18 131.89 108.62Q131.38 109.06 131.26 109.84ZM142.62 114.00 141.44 107.10H142.88L143.75 113.03H143.98L145.18 107.10H147.52L148.71 113.03H148.93L149.80 107.10H151.24L150.07 114.00H147.64L146.45 108.08H146.23L145.04 114.00ZM156.18 114.20Q155.15 114.20 154.34 113.77Q153.54 113.34 153.08 112.54Q152.61 111.75 152.61 110.65V110.44Q152.61 109.35 153.08 108.56Q153.54 107.77 154.34 107.34Q155.15 106.90 156.18 106.90Q157.22 106.90 158.03 107.34Q158.84 107.77 159.31 108.56Q159.77 109.35 159.77 110.44V110.65Q159.77 111.75 159.31 112.54Q158.84 113.34 158.03 113.77Q157.22 114.20 156.18 114.20ZM156.18 112.91Q157.14 112.91 157.73 112.30Q158.33 111.69 158.33 110.61V110.49Q158.33 109.41 157.74 108.80Q157.15 108.19 156.18 108.19Q155.25 108.19 154.65 108.80Q154.06 109.41 154.06 110.49V110.61Q154.06 111.69 154.65 112.30Q155.25 112.91 156.18 112.91ZM161.56 114.00V107.10H162.97V107.91H163.20Q163.37 107.48 163.74 107.27Q164.11 107.07 164.65 107.07H165.48V108.37H164.60Q163.90 108.37 163.45 108.76Q163.00 109.14 163.00 109.94V114.00ZM166.98 114.00V104.20H168.42V109.79H168.64L171.36 107.10H173.28L169.79 110.44L173.39 114.00H171.49L168.64 111.13H168.42V114.00ZM175.94 114.00V108.32H174.01V107.10H175.94V105.59Q175.94 104.96 176.32 104.58Q176.69 104.20 177.32 104.20H179.10V105.42H177.79Q177.38 105.42 177.38 105.84V107.10H179.37V108.32H177.38V114.00ZM180.84 114.00V104.20H182.28V114.00ZM187.66 114.20Q186.62 114.20 185.81 113.77Q185.01 113.34 184.55 112.54Q184.09 111.75 184.09 110.65V110.44Q184.09 109.35 184.55 108.56Q185.01 107.77 185.81 107.34Q186.62 106.90 187.66 106.90Q188.69 106.90 189.50 107.34Q190.32 107.77 190.78 108.56Q191.24 109.35 191.24 110.44V110.65Q191.24 111.75 190.78 112.54Q190.32 113.34 189.50 113.77Q188.69 114.20 187.66 114.20ZM187.66 112.91Q188.61 112.91 189.20 112.30Q189.80 111.69 189.80 110.61V110.49Q189.80 109.41 189.21 108.80Q188.62 108.19 187.66 108.19Q186.72 108.19 186.12 108.80Q185.53 109.41 185.53 110.49V110.61Q185.53 111.69 186.12 112.30Q186.72 112.91 187.66 112.91ZM193.79 114.00 192.61 107.10H194.05L194.92 113.03H195.15L196.35 107.10H198.69L199.88 113.03H200.10L200.97 107.10H202.41L201.24 114.00H198.81L197.62 108.08H197.40L196.21 114.00ZM204.13 115.90V115.08H204.61Q205.18 115.08 205.18 114.50V114.06H204.97Q204.48 114.06 204.16 113.76Q203.84 113.47 203.84 113.02Q203.84 112.53 204.16 112.23Q204.48 111.93 204.97 111.93Q205.46 111.93 205.78 112.24Q206.09 112.56 206.09 113.06V114.52Q206.09 115.90 204.71 115.90ZM211.51 114.00V107.10H212.93V107.91H213.15Q213.35 107.55 213.78 107.27Q214.21 106.99 214.96 106.99Q215.73 106.99 216.19 107.30Q216.66 107.62 216.90 108.11H217.13Q217.36 107.63 217.82 107.31Q218.27 106.99 219.11 106.99Q219.79 106.99 220.30 107.26Q220.82 107.53 221.13 108.07Q221.44 108.61 221.44 109.41V114.00H220.00V109.52Q220.00 108.89 219.65 108.55Q219.31 108.20 218.68 108.20Q218.01 108.20 217.60 108.64Q217.20 109.07 217.20 109.88V114.00H215.75V109.52Q215.75 108.89 215.41 108.55Q215.07 108.20 214.44 108.20Q213.77 108.20 213.36 108.64Q212.95 109.07 212.95 109.88V114.00ZM226.74 114.20Q225.71 114.20 224.90 113.77Q224.10 113.34 223.64 112.54Q223.17 111.75 223.17 110.65V110.44Q223.17 109.35 223.64 108.56Q224.10 107.77 224.90 107.34Q225.71 106.90 226.74 106.90Q227.78 106.90 228.59 107.34Q229.40 107.77 229.87 108.56Q230.33 109.35 230.33 110.44V110.65Q230.33 111.75 229.87 112.54Q229.40 113.34 228.59 113.77Q227.78 114.20 226.74 114.20ZM226.74 112.91Q227.70 112.91 228.29 112.30Q228.89 111.69 228.89 110.61V110.49Q228.89 109.41 228.30 108.80Q227.71 108.19 226.74 108.19Q225.81 108.19 225.21 108.80Q224.62 109.41 224.62 110.49V110.61Q224.62 111.69 225.21 112.30Q225.81 112.91 226.74 112.91ZM234.98 114.20Q234.12 114.20 233.39 113.78Q232.67 113.36 232.22 112.56Q231.78 111.77 231.78 110.65V110.44Q231.78 109.34 232.22 108.54Q232.65 107.74 233.38 107.32Q234.11 106.90 234.98 106.90Q235.65 106.90 236.10 107.07Q236.56 107.24 236.85 107.50Q237.15 107.76 237.30 108.04H237.52V104.20H238.97V114.00H237.55V113.02H237.33Q237.06 113.47 236.52 113.83Q235.98 114.20 234.98 114.20ZM235.38 112.94Q236.32 112.94 236.93 112.33Q237.54 111.73 237.54 110.61V110.49Q237.54 109.38 236.94 108.78Q236.33 108.18 235.38 108.18Q234.46 108.18 233.85 108.78Q233.24 109.38 233.24 110.49V110.61Q233.24 111.73 233.85 112.33Q234.46 112.94 235.38 112.94ZM244.26 114.20Q243.21 114.20 242.42 113.75Q241.64 113.31 241.20 112.51Q240.76 111.70 240.76 110.64V110.47Q240.76 109.39 241.19 108.59Q241.63 107.78 242.40 107.34Q243.18 106.90 244.20 106.90Q245.20 106.90 245.94 107.34Q246.69 107.78 247.11 108.57Q247.53 109.35 247.53 110.40V110.95H242.23Q242.26 111.86 242.84 112.40Q243.42 112.94 244.29 112.94Q245.10 112.94 245.51 112.57Q245.92 112.21 246.15 111.73L247.34 112.35Q247.14 112.74 246.77 113.17Q246.40 113.61 245.80 113.90Q245.20 114.20 244.26 114.20ZM242.24 109.84H246.06Q246.01 109.06 245.50 108.62Q245.00 108.18 244.19 108.18Q243.38 108.18 242.86 108.62Q242.35 109.06 242.24 109.84ZM249.27 114.00V104.20H250.71V114.00ZM252.85 114.00V104.20H254.30V114.00ZM259.60 114.20Q258.55 114.20 257.77 113.75Q256.98 113.31 256.54 112.51Q256.10 111.70 256.10 110.64V110.47Q256.10 109.39 256.54 108.59Q256.97 107.78 257.75 107.34Q258.52 106.90 259.55 106.90Q260.54 106.90 261.29 107.34Q262.04 107.78 262.46 108.57Q262.88 109.35 262.88 110.40V110.95H257.57Q257.60 111.86 258.18 112.40Q258.76 112.94 259.63 112.94Q260.44 112.94 260.85 112.57Q261.27 112.21 261.49 111.73L262.68 112.35Q262.49 112.74 262.11 113.17Q261.74 113.61 261.14 113.90Q260.54 114.20 259.60 114.20ZM257.59 109.84H261.41Q261.35 109.06 260.85 108.62Q260.34 108.18 259.53 108.18Q258.72 108.18 258.21 108.62Q257.70 109.06 257.59 109.84ZM267.47 114.20Q266.62 114.20 265.89 113.78Q265.16 113.36 264.72 112.56Q264.28 111.77 264.28 110.65V110.44Q264.28 109.34 264.71 108.54Q265.15 107.74 265.87 107.32Q266.60 106.90 267.47 106.90Q268.14 106.90 268.60 107.07Q269.05 107.24 269.35 107.50Q269.64 107.76 269.79 108.04H270.02V104.20H271.46V114.00H270.05V113.02H269.82Q269.56 113.47 269.02 113.83Q268.48 114.20 267.47 114.20ZM267.88 112.94Q268.81 112.94 269.42 112.33Q270.03 111.73 270.03 110.61V110.49Q270.03 109.38 269.43 108.78Q268.83 108.18 267.88 108.18Q266.95 108.18 266.34 108.78Q265.73 109.38 265.73 110.49V110.61Q265.73 111.73 266.34 112.33Q266.95 112.94 267.88 112.94ZM277.16 116.80V107.10H278.57V108.09H278.80Q279.06 107.63 279.60 107.27Q280.14 106.90 281.15 106.90Q282.02 106.90 282.74 107.32Q283.46 107.74 283.90 108.53Q284.34 109.32 284.34 110.44V110.65Q284.34 111.77 283.91 112.56Q283.47 113.36 282.74 113.78Q282.02 114.20 281.15 114.20Q280.48 114.20 280.01 114.03Q279.55 113.86 279.27 113.60Q278.99 113.34 278.82 113.06H278.60V116.80ZM280.73 112.94Q281.68 112.94 282.28 112.33Q282.88 111.73 282.88 110.61V110.49Q282.88 109.38 282.27 108.78Q281.67 108.18 280.73 108.18Q279.80 108.18 279.19 108.78Q278.59 109.38 278.59 110.49V110.61Q278.59 111.73 279.19 112.33Q279.80 112.94 280.73 112.94ZM286.13 114.00V107.10H287.55V107.91H287.77Q287.94 107.48 288.31 107.27Q288.68 107.07 289.23 107.07H290.05V108.37H289.17Q288.47 108.37 288.02 108.76Q287.57 109.14 287.57 109.94V114.00ZM294.78 114.20Q293.75 114.20 292.94 113.77Q292.14 113.34 291.68 112.54Q291.21 111.75 291.21 110.65V110.44Q291.21 109.35 291.68 108.56Q292.14 107.77 292.94 107.34Q293.75 106.90 294.78 106.90Q295.82 106.90 296.63 107.34Q297.44 107.77 297.91 108.56Q298.37 109.35 298.37 110.44V110.65Q298.37 111.75 297.91 112.54Q297.44 113.34 296.63 113.77Q295.82 114.20 294.78 114.20ZM294.78 112.91Q295.74 112.91 296.33 112.30Q296.93 111.69 296.93 110.61V110.49Q296.93 109.41 296.34 108.80Q295.75 108.19 294.78 108.19Q293.85 108.19 293.25 108.80Q292.66 109.41 292.66 110.49V110.61Q292.66 111.69 293.25 112.30Q293.85 112.91 294.78 112.91ZM300.16 116.80V107.10H301.57V108.09H301.80Q302.06 107.63 302.60 107.27Q303.14 106.90 304.15 106.90Q305.02 106.90 305.74 107.32Q306.46 107.74 306.90 108.53Q307.34 109.32 307.34 110.44V110.65Q307.34 111.77 306.91 112.56Q306.47 113.36 305.75 113.78Q305.02 114.20 304.15 114.20Q303.48 114.20 303.02 114.03Q302.55 113.86 302.27 113.60Q301.99 113.34 301.83 113.06H301.60V116.80ZM303.73 112.94Q304.68 112.94 305.28 112.33Q305.89 111.73 305.89 110.61V110.49Q305.89 109.38 305.28 108.78Q304.67 108.18 303.73 108.18Q302.81 108.18 302.20 108.78Q301.59 109.38 301.59 110.49V110.61Q301.59 111.73 302.20 112.33Q302.81 112.94 303.73 112.94ZM312.30 114.20Q311.25 114.20 310.46 113.75Q309.68 113.31 309.24 112.51Q308.80 111.70 308.80 110.64V110.47Q308.80 109.39 309.23 108.59Q309.67 107.78 310.44 107.34Q311.22 106.90 312.24 106.90Q313.24 106.90 313.98 107.34Q314.73 107.78 315.15 108.57Q315.57 109.35 315.57 110.40V110.95H310.27Q310.30 111.86 310.88 112.40Q311.46 112.94 312.33 112.94Q313.14 112.94 313.55 112.57Q313.96 112.21 314.19 111.73L315.38 112.35Q315.18 112.74 314.81 113.17Q314.44 113.61 313.84 113.90Q313.24 114.20 312.30 114.20ZM310.28 109.84H314.10Q314.05 109.06 313.54 108.62Q313.04 108.18 312.23 108.18Q311.42 108.18 310.90 108.62Q310.39 109.06 310.28 109.84ZM317.31 114.00V107.10H318.72V107.91H318.95Q319.12 107.48 319.49 107.27Q319.86 107.07 320.40 107.07H321.23V108.37H320.35Q319.65 108.37 319.20 108.76Q318.75 109.14 318.75 109.94V114.00ZM322.73 114.00V104.20H324.17V114.00ZM327.11 116.80V115.54H330.96Q331.35 115.54 331.35 115.12V112.99H331.13Q331.00 113.27 330.74 113.53Q330.48 113.79 330.05 113.96Q329.62 114.13 328.96 114.13Q328.17 114.13 327.56 113.78Q326.94 113.43 326.59 112.78Q326.24 112.14 326.24 111.26V107.10H327.68V111.14Q327.68 112.04 328.13 112.47Q328.58 112.89 329.38 112.89Q330.26 112.89 330.80 112.31Q331.34 111.72 331.34 110.60V107.10H332.78V115.41Q332.78 116.04 332.41 116.42Q332.04 116.80 331.39 116.80ZM341.71 114.20Q340.68 114.20 339.87 113.77Q339.07 113.34 338.60 112.54Q338.14 111.75 338.14 110.65V110.44Q338.14 109.35 338.60 108.56Q339.07 107.77 339.87 107.34Q340.68 106.90 341.71 106.90Q342.75 106.90 343.56 107.34Q344.37 107.77 344.83 108.56Q345.30 109.35 345.30 110.44V110.65Q345.30 111.75 344.83 112.54Q344.37 113.34 343.56 113.77Q342.75 114.20 341.71 114.20ZM341.71 112.91Q342.66 112.91 343.26 112.30Q343.85 111.69 343.85 110.61V110.49Q343.85 109.41 343.27 108.80Q342.68 108.19 341.71 108.19Q340.77 108.19 340.18 108.80Q339.58 109.41 339.58 110.49V110.61Q339.58 111.69 340.18 112.30Q340.77 112.91 341.71 112.91ZM347.09 114.00V107.10H348.50V108.13H348.73Q348.92 107.71 349.43 107.35Q349.93 106.99 350.92 106.99Q351.71 106.99 352.32 107.34Q352.93 107.69 353.28 108.32Q353.63 108.96 353.63 109.86V114.00H352.18V109.97Q352.18 109.07 351.74 108.65Q351.29 108.22 350.50 108.22Q349.61 108.22 349.07 108.81Q348.53 109.39 348.53 110.51V114.00ZM361.86 114.00Q361.23 114.00 360.86 113.62Q360.49 113.24 360.49 112.61V108.32H358.58V107.10H360.49V104.82H361.93V107.10H363.99V108.32H361.93V112.36Q361.93 112.78 362.32 112.78H363.76V114.00ZM365.68 114.00V104.20H367.12V108.08H367.35Q367.49 107.81 367.74 107.56Q368.00 107.31 368.43 107.15Q368.86 106.99 369.52 106.99Q370.30 106.99 370.91 107.34Q371.52 107.69 371.87 108.32Q372.22 108.96 372.22 109.86V114.00H370.78V109.97Q370.78 109.07 370.33 108.65Q369.88 108.22 369.10 108.22Q368.20 108.22 367.66 108.81Q367.12 109.39 367.12 110.51V114.00ZM377.45 114.20Q376.40 114.20 375.62 113.75Q374.84 113.31 374.39 112.51Q373.95 111.70 373.95 110.64V110.47Q373.95 109.39 374.39 108.59Q374.82 107.78 375.60 107.34Q376.38 106.90 377.40 106.90Q378.39 106.90 379.14 107.34Q379.89 107.78 380.31 108.57Q380.73 109.35 380.73 110.40V110.95H375.42Q375.45 111.86 376.03 112.40Q376.61 112.94 377.48 112.94Q378.29 112.94 378.71 112.57Q379.12 112.21 379.34 111.73L380.53 112.35Q380.34 112.74 379.97 113.17Q379.60 113.61 378.99 113.90Q378.39 114.20 377.45 114.20ZM375.44 109.84H379.26Q379.20 109.06 378.70 108.62Q378.20 108.18 377.38 108.18Q376.57 108.18 376.06 108.62Q375.55 109.06 375.44 109.84ZM386.04 116.80V107.10H387.45V108.09H387.67Q387.94 107.63 388.48 107.27Q389.02 106.90 390.03 106.90Q390.89 106.90 391.61 107.32Q392.34 107.74 392.78 108.53Q393.22 109.32 393.22 110.44V110.65Q393.22 111.77 392.78 112.56Q392.35 113.36 391.62 113.78Q390.89 114.20 390.03 114.20Q389.35 114.20 388.89 114.03Q388.43 113.86 388.15 113.60Q387.87 113.34 387.70 113.06H387.48V116.80ZM389.61 112.94Q390.56 112.94 391.16 112.33Q391.76 111.73 391.76 110.61V110.49Q391.76 109.38 391.15 108.78Q390.54 108.18 389.61 108.18Q388.68 108.18 388.07 108.78Q387.46 109.38 387.46 110.49V110.61Q387.46 111.73 388.07 112.33Q388.68 112.94 389.61 112.94ZM395.01 114.00V104.20H396.45V114.00ZM400.74 114.20Q399.99 114.20 399.41 113.94Q398.83 113.69 398.49 113.20Q398.15 112.71 398.15 112.01Q398.15 111.30 398.49 110.83Q398.83 110.36 399.43 110.12Q400.02 109.88 400.78 109.88H402.88V109.44Q402.88 108.83 402.51 108.47Q402.15 108.11 401.39 108.11Q400.65 108.11 400.26 108.46Q399.87 108.81 399.74 109.37L398.40 108.93Q398.57 108.37 398.94 107.92Q399.31 107.46 399.92 107.18Q400.54 106.90 401.41 106.90Q402.75 106.90 403.52 107.59Q404.29 108.27 404.29 109.53V112.38Q404.29 112.80 404.68 112.80H405.27V114.00H404.19Q403.70 114.00 403.40 113.75Q403.09 113.50 403.09 113.06V113.02H402.88Q402.77 113.23 402.54 113.51Q402.32 113.79 401.88 113.99Q401.45 114.20 400.74 114.20ZM400.95 113.01Q401.81 113.01 402.35 112.51Q402.88 112.01 402.88 111.14V111.00H400.86Q400.29 111.00 399.94 111.25Q399.59 111.49 399.59 111.97Q399.59 112.45 399.95 112.73Q400.32 113.01 400.95 113.01ZM409.26 114.00Q408.63 114.00 408.26 113.62Q407.89 113.24 407.89 112.61V108.32H405.99V107.10H407.89V104.82H409.33V107.10H411.39V108.32H409.33V112.36Q409.33 112.78 409.72 112.78H411.17V114.00ZM414.33 114.00V108.32H412.40V107.10H414.33V105.59Q414.33 104.96 414.71 104.58Q415.09 104.20 415.72 104.20H417.49V105.42H416.18Q415.77 105.42 415.77 105.84V107.10H417.76V108.32H415.77V114.00ZM422.46 114.20Q421.43 114.20 420.62 113.77Q419.82 113.34 419.36 112.54Q418.89 111.75 418.89 110.65V110.44Q418.89 109.35 419.36 108.56Q419.82 107.77 420.62 107.34Q421.43 106.90 422.46 106.90Q423.50 106.90 424.31 107.34Q425.12 107.77 425.59 108.56Q426.05 109.35 426.05 110.44V110.65Q426.05 111.75 425.59 112.54Q425.12 113.34 424.31 113.77Q423.50 114.20 422.46 114.20ZM422.46 112.91Q423.42 112.91 424.01 112.30Q424.61 111.69 424.61 110.61V110.49Q424.61 109.41 424.02 108.80Q423.43 108.19 422.46 108.19Q421.53 108.19 420.93 108.80Q420.34 109.41 420.34 110.49V110.61Q420.34 111.69 420.93 112.30Q421.53 112.91 422.46 112.91ZM427.84 114.00V107.10H429.25V107.91H429.48Q429.65 107.48 430.02 107.27Q430.39 107.07 430.93 107.07H431.76V108.37H430.88Q430.18 108.37 429.73 108.76Q429.28 109.14 429.28 109.94V114.00ZM433.26 114.00V107.10H434.67V107.91H434.90Q435.09 107.55 435.53 107.27Q435.96 106.99 436.70 106.99Q437.47 106.99 437.94 107.30Q438.41 107.62 438.65 108.11H438.87Q439.11 107.63 439.56 107.31Q440.02 106.99 440.86 106.99Q441.53 106.99 442.05 107.26Q442.57 107.53 442.88 108.07Q443.18 108.61 443.18 109.41V114.00H441.74V109.52Q441.74 108.89 441.40 108.55Q441.06 108.20 440.43 108.20Q439.75 108.20 439.35 108.64Q438.94 109.07 438.94 109.88V114.00H437.50V109.52Q437.50 108.89 437.16 108.55Q436.81 108.20 436.18 108.20Q435.51 108.20 435.11 108.64Q434.70 109.07 434.70 109.88V114.00ZM446.12 114.20Q445.63 114.20 445.30 113.87Q444.98 113.55 444.98 113.05Q444.98 112.54 445.30 112.23Q445.63 111.91 446.12 111.91Q446.61 111.91 446.94 112.24Q447.27 112.56 447.27 113.05Q447.27 113.55 446.94 113.87Q446.61 114.20 446.12 114.20Z" fill="#55556a"/>
<path d="M33.53 162.00 32.85 159.71H30.04L29.36 162.00H28.36L30.82 153.97H32.09L34.55 162.00ZM31.50 155.00H31.39L30.27 158.87H32.62ZM36.79 156.07H37.71V157.03H37.76Q38.33 155.93 39.59 155.93Q40.68 155.93 41.29 156.74Q41.91 157.56 41.91 159.03Q41.91 160.50 41.29 161.32Q40.68 162.14 39.59 162.14Q38.33 162.14 37.76 161.03H37.71V164.30H36.79ZM39.23 161.32Q40.04 161.32 40.48 160.83Q40.92 160.34 40.92 159.54V158.53Q40.92 157.72 40.48 157.23Q40.04 156.74 39.23 156.74Q38.92 156.74 38.64 156.82Q38.37 156.91 38.16 157.06Q37.95 157.22 37.83 157.44Q37.71 157.66 37.71 157.96V160.10Q37.71 160.40 37.83 160.63Q37.95 160.85 38.16 161.01Q38.37 161.16 38.64 161.24Q38.92 161.32 39.23 161.32ZM46.95 162.14Q46.31 162.14 45.80 161.92Q45.29 161.70 44.92 161.29Q44.56 160.88 44.37 160.32Q44.17 159.75 44.17 159.04Q44.17 158.33 44.37 157.76Q44.57 157.18 44.93 156.77Q45.29 156.37 45.79 156.15Q46.29 155.93 46.90 155.93Q47.49 155.93 47.98 156.15Q48.47 156.37 48.82 156.75Q49.16 157.14 49.35 157.66Q49.53 158.19 49.53 158.83V159.26H45.14V159.54Q45.14 159.93 45.26 160.26Q45.39 160.60 45.63 160.84Q45.86 161.08 46.20 161.21Q46.54 161.34 46.95 161.34Q47.55 161.34 47.99 161.07Q48.43 160.79 48.66 160.31L49.33 160.77Q49.07 161.37 48.45 161.75Q47.84 162.14 46.95 162.14ZM46.90 156.69Q46.52 156.69 46.19 156.82Q45.87 156.96 45.64 157.20Q45.40 157.45 45.27 157.77Q45.14 158.10 45.14 158.49V158.57H48.54V158.45Q48.54 158.06 48.42 157.73Q48.30 157.41 48.09 157.18Q47.87 156.94 47.57 156.81Q47.26 156.69 46.90 156.69ZM51.80 162.00 54.01 158.99 51.86 156.07H52.96L53.86 157.32L54.57 158.31H54.62L55.31 157.32L56.19 156.07H57.25L55.08 158.98L57.31 162.00H56.21L55.21 160.61L54.53 159.67H54.48L53.83 160.61L52.86 162.00Z" fill="#76768a"/>
</svg>