<svg xmlns="http://www.w3.org/2000/svg" viewBox="0 0 580 200" width="580" height="200" role="img" aria-label="CRM Analytics Academy — A full CRMA curriculum — data prep, SAQL, dashboards, Einstein Discovery. Free forever.">
<rect width="580" height="200" fill="#0a0a0a"/>
<rect x="0.5" y="0.5" width="579" height="199" rx="16" fill="none" stroke="#313131"/>
<rect x="28.5" y="26.5" width="47.8" height="21" rx="6" fill="none" stroke="#313131"/>
<path d="M39.18 41.30V32.78H40.44V40.82L39.67 40.11H44.50V41.30ZM46.14 41.30V40.11H48.18V33.97H46.14V32.78H51.46V33.97H49.42V40.11H51.46V41.30ZM55.26 41.30 52.72 32.78H54.06L56.19 40.28H55.81L57.94 32.78H59.28L56.74 41.30ZM60.66 41.30V32.78H65.89V33.97H61.92V36.45H65.74V37.60H61.92V40.11H65.98V41.30Z" fill="#737373"/>
<path d="M540 39 L551 28 M543 28 H551 V36" fill="none" stroke="#525252" stroke-width="1.6" stroke-linecap="square"/>
<path d="M36.93 96.38Q34.60 96.38 32.82 95.32Q31.05 94.25 30.04 92.27Q29.03 90.29 29.03 87.50Q29.03 84.77 30.02 82.76Q31.00 80.76 32.78 79.67Q34.55 78.58 36.95 78.58Q40.22 78.58 42.02 80.20Q43.82 81.82 44.37 84.72L41.10 84.89Q40.79 83.21 39.76 82.25Q38.73 81.29 36.95 81.29Q35.51 81.29 34.46 82.06Q33.40 82.82 32.82 84.22Q32.25 85.61 32.25 87.50Q32.25 89.42 32.84 90.80Q33.42 92.18 34.48 92.93Q35.54 93.67 36.93 93.67Q38.82 93.67 39.87 92.63Q40.91 91.58 41.20 89.76L44.46 89.93Q44.13 91.92 43.17 93.37Q42.21 94.82 40.64 95.60Q39.06 96.38 36.93 96.38ZM46.82 96.00V78.96H53.94Q55.79 78.96 57.14 79.58Q58.48 80.21 59.22 81.36Q59.97 82.51 59.97 84.07Q59.97 85.25 59.46 86.16Q58.96 87.07 58.11 87.62Q57.26 88.18 56.22 88.30L56.10 88.06Q57.76 88.06 58.66 88.80Q59.56 89.54 59.68 91.08L60.11 96.00H56.94L56.58 91.54Q56.51 90.53 55.94 90.05Q55.36 89.57 54.02 89.57H49.94V96.00ZM49.94 86.83H53.75Q55.17 86.83 55.96 86.16Q56.75 85.49 56.75 84.26Q56.75 83.02 55.95 82.34Q55.14 81.67 53.61 81.67H49.94ZM62.87 96.00V78.96H67.07L71.78 92.16L76.48 78.96H80.68V96.00H77.56V84.24L73.26 95.98H70.29L65.99 84.24V96.00ZM87.76 96.00 93.90 78.96H97.72L103.86 96.00H100.60L99.18 91.97H92.44L91.02 96.00ZM93.35 89.30H98.27L95.82 82.10ZM105.52 96.00V83.18H108.30L108.42 86.78L108.06 86.64Q108.26 85.30 108.86 84.48Q109.46 83.66 110.32 83.28Q111.18 82.90 112.22 82.90Q113.63 82.90 114.60 83.52Q115.58 84.14 116.08 85.24Q116.58 86.33 116.58 87.77V96.00H113.51V88.75Q113.51 87.67 113.30 86.93Q113.08 86.18 112.59 85.79Q112.10 85.39 111.28 85.39Q110.06 85.39 109.32 86.26Q108.59 87.12 108.59 88.75V96.00ZM123.18 96.29Q121.17 96.29 119.94 95.36Q118.72 94.44 118.72 92.78Q118.72 91.13 119.75 90.19Q120.78 89.26 122.90 88.85L127.14 88.01Q127.14 86.64 126.52 85.96Q125.90 85.27 124.67 85.27Q123.57 85.27 122.93 85.79Q122.30 86.30 122.06 87.26L118.94 87.12Q119.32 85.08 120.81 83.99Q122.30 82.90 124.67 82.90Q127.41 82.90 128.81 84.28Q130.22 85.66 130.22 88.22V92.88Q130.22 93.38 130.40 93.58Q130.58 93.77 130.94 93.77H131.34V96.00Q131.20 96.05 130.88 96.07Q130.55 96.10 130.22 96.10Q129.42 96.10 128.80 95.84Q128.18 95.59 127.84 94.96Q127.50 94.32 127.50 93.22L127.77 93.41Q127.58 94.25 126.94 94.91Q126.30 95.57 125.34 95.93Q124.38 96.29 123.18 96.29ZM123.81 94.06Q124.84 94.06 125.58 93.65Q126.33 93.24 126.74 92.52Q127.14 91.80 127.14 90.82V90.10L123.83 90.77Q122.80 90.98 122.36 91.40Q121.91 91.82 121.91 92.50Q121.91 93.24 122.40 93.65Q122.90 94.06 123.81 94.06ZM135.98 96.00Q134.58 96.00 133.74 95.28Q132.90 94.56 132.90 92.98V78.96H135.98V92.66Q135.98 93.14 136.23 93.38Q136.48 93.62 136.94 93.62H137.87V96.00ZM140.46 99.60V97.22H142.10Q142.72 97.22 143.02 97.03Q143.32 96.84 143.49 96.38L143.85 95.50H142.96L138.38 83.18H141.57L144.78 92.62L147.86 83.18H151.05L146.03 97.34Q145.60 98.54 144.82 99.07Q144.04 99.60 142.65 99.60ZM157.89 96.00Q155.97 96.00 155.07 95.11Q154.17 94.22 154.17 92.33V80.18H157.24V92.04Q157.24 92.93 157.62 93.28Q158.01 93.62 158.82 93.62H160.62V96.00ZM152.15 85.56V83.18H160.62V85.56ZM162.52 96.00V83.18H165.59V96.00ZM162.47 81.48V78.74H165.66V81.48ZM174.06 96.29Q172.14 96.29 170.73 95.46Q169.31 94.63 168.53 93.12Q167.75 91.61 167.75 89.59Q167.75 87.58 168.53 86.08Q169.31 84.58 170.73 83.74Q172.14 82.90 174.06 82.90Q175.70 82.90 176.97 83.47Q178.24 84.05 179.04 85.12Q179.85 86.18 180.04 87.72L176.87 87.89Q176.68 86.66 175.92 86.03Q175.17 85.39 174.06 85.39Q172.58 85.39 171.76 86.51Q170.94 87.62 170.94 89.59Q170.94 91.58 171.76 92.69Q172.58 93.79 174.06 93.79Q175.19 93.79 175.95 93.14Q176.70 92.50 176.87 91.13L180.04 91.27Q179.85 92.81 179.06 93.94Q178.26 95.06 176.99 95.68Q175.72 96.29 174.06 96.29ZM187.14 96.29Q185.20 96.29 183.92 95.74Q182.63 95.18 181.96 94.20Q181.29 93.22 181.19 91.97L184.34 91.82Q184.50 92.83 185.15 93.38Q185.80 93.94 187.17 93.94Q188.25 93.94 188.81 93.59Q189.38 93.24 189.38 92.50Q189.38 92.06 189.17 91.78Q188.97 91.49 188.38 91.27Q187.79 91.06 186.66 90.84Q184.72 90.50 183.62 90.01Q182.51 89.52 182.07 88.78Q181.62 88.03 181.62 86.93Q181.62 85.13 183.00 84.01Q184.38 82.90 187.05 82.90Q188.90 82.90 190.08 83.48Q191.27 84.07 191.88 85.04Q192.50 86.02 192.59 87.22L189.47 87.36Q189.45 86.76 189.18 86.28Q188.92 85.80 188.39 85.52Q187.86 85.25 187.00 85.25Q185.92 85.25 185.36 85.68Q184.79 86.11 184.79 86.83Q184.79 87.34 185.02 87.67Q185.25 88.01 185.80 88.21Q186.35 88.42 187.31 88.58Q189.28 88.87 190.43 89.38Q191.58 89.88 192.08 90.64Q192.57 91.39 192.57 92.45Q192.57 94.30 191.09 95.29Q189.62 96.29 187.14 96.29ZM198.69 96.00 204.83 78.96H208.65L214.79 96.00H211.53L210.11 91.97H203.37L201.95 96.00ZM204.28 89.30H209.20L206.75 82.10ZM222.02 96.29Q220.10 96.29 218.68 95.46Q217.26 94.63 216.48 93.12Q215.70 91.61 215.70 89.59Q215.70 87.58 216.48 86.08Q217.26 84.58 218.68 83.74Q220.10 82.90 222.02 82.90Q223.65 82.90 224.92 83.47Q226.19 84.05 227.00 85.12Q227.80 86.18 227.99 87.72L224.82 87.89Q224.63 86.66 223.88 86.03Q223.12 85.39 222.02 85.39Q220.53 85.39 219.71 86.51Q218.90 87.62 218.90 89.59Q218.90 91.58 219.71 92.69Q220.53 93.79 222.02 93.79Q223.14 93.79 223.90 93.14Q224.66 92.50 224.82 91.13L227.99 91.27Q227.80 92.81 227.01 93.94Q226.22 95.06 224.94 95.68Q223.67 96.29 222.02 96.29ZM233.61 96.29Q231.59 96.29 230.37 95.36Q229.14 94.44 229.14 92.78Q229.14 91.13 230.18 90.19Q231.21 89.26 233.32 88.85L237.57 88.01Q237.57 86.64 236.94 85.96Q236.32 85.27 235.10 85.27Q233.99 85.27 233.36 85.79Q232.72 86.30 232.48 87.26L229.36 87.12Q229.74 85.08 231.23 83.99Q232.72 82.90 235.10 82.90Q237.83 82.90 239.24 84.28Q240.64 85.66 240.64 88.22V92.88Q240.64 93.38 240.82 93.58Q241.00 93.77 241.36 93.77H241.77V96.00Q241.62 96.05 241.30 96.07Q240.98 96.10 240.64 96.10Q239.85 96.10 239.22 95.84Q238.60 95.59 238.26 94.96Q237.93 94.32 237.93 93.22L238.19 93.41Q238.00 94.25 237.36 94.91Q236.73 95.57 235.77 95.93Q234.81 96.29 233.61 96.29ZM234.23 94.06Q235.26 94.06 236.01 93.65Q236.75 93.24 237.16 92.52Q237.57 91.80 237.57 90.82V90.10L234.26 90.77Q233.22 90.98 232.78 91.40Q232.34 91.82 232.34 92.50Q232.34 93.24 232.83 93.65Q233.32 94.06 234.23 94.06ZM247.89 96.29Q246.26 96.29 245.07 95.47Q243.88 94.66 243.23 93.14Q242.58 91.63 242.58 89.59Q242.58 87.55 243.23 86.04Q243.88 84.53 245.08 83.71Q246.28 82.90 247.89 82.90Q249.23 82.90 250.25 83.45Q251.27 84.00 251.80 85.01V78.96H254.87V96.00H251.94L251.87 94.10Q251.34 95.14 250.29 95.71Q249.23 96.29 247.89 96.29ZM248.82 93.79Q249.78 93.79 250.44 93.31Q251.10 92.83 251.45 91.88Q251.80 90.94 251.80 89.59Q251.80 88.22 251.45 87.29Q251.10 86.35 250.44 85.87Q249.78 85.39 248.82 85.39Q247.43 85.39 246.60 86.51Q245.78 87.62 245.78 89.59Q245.78 91.51 246.60 92.65Q247.43 93.79 248.82 93.79ZM263.30 96.29Q261.38 96.29 259.96 95.46Q258.54 94.63 257.78 93.12Q257.01 91.61 257.01 89.59Q257.01 87.58 257.78 86.08Q258.54 84.58 259.95 83.74Q261.35 82.90 263.22 82.90Q265.05 82.90 266.43 83.71Q267.81 84.53 268.55 86.06Q269.30 87.60 269.30 89.76V90.46H260.20Q260.30 92.14 261.12 92.99Q261.95 93.84 263.32 93.84Q264.35 93.84 265.04 93.37Q265.72 92.90 265.98 92.06L269.13 92.26Q268.60 94.13 267.05 95.21Q265.50 96.29 263.30 96.29ZM260.20 88.39H266.13Q266.03 86.83 265.24 86.08Q264.45 85.32 263.22 85.32Q262.00 85.32 261.20 86.11Q260.39 86.90 260.20 88.39ZM271.46 96.00V83.18H274.24L274.34 86.33L274.05 86.18Q274.26 85.15 274.80 84.42Q275.34 83.69 276.12 83.29Q276.90 82.90 277.84 82.90Q279.47 82.90 280.48 83.82Q281.49 84.74 281.75 86.35H281.34Q281.56 85.22 282.09 84.47Q282.62 83.71 283.42 83.30Q284.22 82.90 285.23 82.90Q286.55 82.90 287.51 83.46Q288.47 84.02 288.99 85.10Q289.50 86.18 289.50 87.77V96.00H286.43V88.56Q286.43 86.98 285.89 86.18Q285.35 85.39 284.25 85.39Q283.50 85.39 282.98 85.78Q282.45 86.16 282.17 86.89Q281.90 87.62 281.90 88.66V96.00H279.04V88.66Q279.04 87.07 278.56 86.23Q278.08 85.39 276.90 85.39Q276.16 85.39 275.64 85.78Q275.13 86.16 274.83 86.89Q274.53 87.62 274.53 88.66V96.00ZM293.30 99.60V97.22H294.93Q295.55 97.22 295.85 97.03Q296.15 96.84 296.32 96.38L296.68 95.50H295.79L291.21 83.18H294.40L297.62 92.62L300.69 83.18H303.88L298.86 97.34Q298.43 98.54 297.65 99.07Q296.87 99.60 295.48 99.60Z" fill="#ffffff"/>
<path d="M28.28 128.00 31.86 118.06H33.49L37.07 128.00H35.76L34.76 125.17H30.59L29.60 128.00ZM31.00 124.00H34.36L32.68 119.11ZM42.70 128.00V119.91Q42.70 119.08 43.18 118.57Q43.65 118.06 44.66 118.06H45.84V119.10H44.74Q44.31 119.10 44.09 119.33Q43.88 119.57 43.88 119.99V128.00ZM41.69 121.62V120.58H45.74V121.62ZM49.94 128.17Q48.83 128.17 48.17 127.42Q47.50 126.67 47.50 125.35V120.58H48.68V125.03Q48.68 126.11 49.06 126.62Q49.45 127.13 50.25 127.13Q51.13 127.13 51.63 126.56Q52.14 126.00 52.14 125.00V120.58H53.31V128.00H52.19V126.17L52.37 126.26Q52.15 127.17 51.52 127.67Q50.89 128.17 49.94 128.17ZM57.01 128.00Q56.36 128.00 55.96 127.66Q55.55 127.33 55.55 126.60V118.06H56.73V126.50Q56.73 126.73 56.85 126.84Q56.97 126.96 57.19 126.96H57.83V128.00ZM60.75 128.00Q60.10 128.00 59.70 127.66Q59.29 127.33 59.29 126.60V118.06H60.47V126.50Q60.47 126.73 60.59 126.84Q60.70 126.96 60.93 126.96H61.57V128.00ZM70.50 128.22Q69.17 128.22 68.17 127.60Q67.16 126.98 66.60 125.82Q66.04 124.65 66.04 123.04Q66.04 121.43 66.60 120.27Q67.16 119.10 68.17 118.47Q69.17 117.84 70.50 117.84Q72.31 117.84 73.30 118.75Q74.30 119.66 74.61 121.22L73.33 121.31Q73.12 120.24 72.44 119.63Q71.75 119.01 70.50 119.01Q69.55 119.01 68.83 119.50Q68.11 119.98 67.70 120.88Q67.30 121.78 67.30 123.04Q67.30 124.30 67.70 125.20Q68.11 126.10 68.83 126.57Q69.55 127.05 70.50 127.05Q71.81 127.05 72.52 126.37Q73.23 125.69 73.42 124.53L74.69 124.61Q74.51 125.69 73.98 126.50Q73.44 127.31 72.57 127.77Q71.69 128.22 70.50 128.22ZM76.54 128.00V118.06H80.30Q81.35 118.06 82.11 118.42Q82.87 118.79 83.28 119.47Q83.69 120.15 83.69 121.07Q83.69 121.74 83.38 122.27Q83.06 122.79 82.57 123.10Q82.08 123.41 81.55 123.44L81.47 123.31Q82.38 123.31 82.90 123.73Q83.43 124.15 83.51 125.07L83.79 128.00H82.57L82.32 125.20Q82.26 124.58 81.88 124.29Q81.49 124.00 80.63 124.00H77.74V128.00ZM77.74 122.82H80.46Q81.37 122.82 81.90 122.36Q82.43 121.90 82.43 121.04Q82.43 120.17 81.89 119.71Q81.34 119.24 80.30 119.24H77.74ZM85.95 128.00V118.06H87.63L90.80 126.68L93.97 118.06H95.65V128.00H94.44V120.30L91.60 128.00H89.99L87.15 120.30V128.00ZM97.22 128.00 100.80 118.06H102.42L106.01 128.00H104.69L103.70 125.17H99.53L98.53 128.00ZM99.93 124.00H103.29L101.61 119.11ZM113.81 128.17Q112.77 128.17 112.01 127.69Q111.24 127.22 110.82 126.34Q110.40 125.47 110.40 124.29Q110.40 123.11 110.82 122.25Q111.24 121.38 112.01 120.90Q112.77 120.41 113.81 120.41Q114.66 120.41 115.33 120.71Q115.99 121.01 116.41 121.59Q116.83 122.16 116.96 122.99L115.72 123.07Q115.60 122.33 115.08 121.93Q114.56 121.53 113.81 121.53Q112.78 121.53 112.21 122.27Q111.64 123.00 111.64 124.29Q111.64 125.58 112.21 126.31Q112.78 127.05 113.81 127.05Q114.56 127.05 115.08 126.63Q115.60 126.21 115.72 125.37L116.96 125.45Q116.83 126.28 116.41 126.89Q115.99 127.50 115.33 127.83Q114.66 128.17 113.81 128.17ZM120.99 128.17Q119.88 128.17 119.22 127.42Q118.55 126.67 118.55 125.35V120.58H119.73V125.03Q119.73 126.11 120.11 126.62Q120.50 127.13 121.30 127.13Q122.18 127.13 122.68 126.56Q123.19 126.00 123.19 125.00V120.58H124.36V128.00H123.24V126.17L123.42 126.26Q123.20 127.17 122.57 127.67Q121.94 128.17 120.99 128.17ZM126.60 128.00V120.58H127.64L127.69 122.46L127.58 122.41Q127.72 121.46 128.19 121.02Q128.66 120.58 129.44 120.58H130.17V121.70H129.46Q128.90 121.70 128.53 121.90Q128.16 122.11 127.97 122.50Q127.78 122.90 127.78 123.52V128.00ZM131.91 128.00V120.58H132.94L133.00 122.46L132.89 122.41Q133.03 121.46 133.50 121.02Q133.97 120.58 134.75 120.58H135.48V121.70H134.76Q134.20 121.70 133.83 121.90Q133.46 122.11 133.27 122.50Q133.08 122.90 133.08 123.52V128.00ZM137.21 128.00V120.58H138.39V128.00ZM137.19 119.42V118.05H138.42V119.42ZM143.53 128.17Q142.49 128.17 141.73 127.69Q140.97 127.22 140.55 126.34Q140.13 125.47 140.13 124.29Q140.13 123.11 140.55 122.25Q140.97 121.38 141.73 120.90Q142.49 120.41 143.53 120.41Q144.38 120.41 145.05 120.71Q145.71 121.01 146.13 121.59Q146.55 122.16 146.68 122.99L145.45 123.07Q145.32 122.33 144.80 121.93Q144.28 121.53 143.53 121.53Q142.51 121.53 141.93 122.27Q141.36 123.00 141.36 124.29Q141.36 125.58 141.93 126.31Q142.51 127.05 143.53 127.05Q144.28 127.05 144.80 126.63Q145.32 126.21 145.45 125.37L146.68 125.45Q146.55 126.28 146.13 126.89Q145.71 127.50 145.05 127.83Q144.38 128.17 143.53 128.17ZM150.71 128.17Q149.60 128.17 148.94 127.42Q148.27 126.67 148.27 125.35V120.58H149.45V125.03Q149.45 126.11 149.84 126.62Q150.22 127.13 151.02 127.13Q151.90 127.13 152.40 126.56Q152.91 126.00 152.91 125.00V120.58H154.08V128.00H152.96V126.17L153.15 126.26Q152.92 127.17 152.29 127.67Q151.66 128.17 150.71 128.17ZM157.78 128.00Q157.14 128.00 156.73 127.66Q156.32 127.33 156.32 126.60V118.06H157.50V126.50Q157.50 126.73 157.62 126.84Q157.74 126.96 157.96 126.96H158.61V128.00ZM162.50 128.17Q161.39 128.17 160.73 127.42Q160.06 126.67 160.06 125.35V120.58H161.24V125.03Q161.24 126.11 161.62 126.62Q162.01 127.13 162.81 127.13Q163.69 127.13 164.19 126.56Q164.70 126.00 164.70 125.00V120.58H165.87V128.00H164.75V126.17L164.93 126.26Q164.71 127.17 164.08 127.67Q163.45 128.17 162.50 128.17ZM168.11 128.00V120.58H169.19L169.23 122.46L169.06 122.40Q169.19 121.78 169.51 121.34Q169.82 120.90 170.28 120.66Q170.74 120.41 171.30 120.41Q172.27 120.41 172.88 120.94Q173.49 121.48 173.64 122.43L173.42 122.41Q173.53 121.77 173.83 121.33Q174.13 120.89 174.61 120.65Q175.08 120.41 175.70 120.41Q176.50 120.41 177.04 120.74Q177.59 121.07 177.87 121.70Q178.15 122.33 178.15 123.23V128.00H176.97V123.48Q176.97 122.47 176.58 121.96Q176.19 121.45 175.42 121.45Q174.90 121.45 174.52 121.70Q174.13 121.95 173.92 122.42Q173.71 122.89 173.71 123.56V128.00H172.54V123.56Q172.54 122.57 172.19 122.01Q171.84 121.45 171.01 121.45Q170.49 121.45 170.11 121.70Q169.72 121.95 169.51 122.43Q169.29 122.90 169.29 123.56V128.00ZM183.39 124.46V123.37H194.85V124.46ZM202.72 128.17Q201.75 128.17 201.05 127.69Q200.34 127.22 199.96 126.35Q199.58 125.48 199.58 124.29Q199.58 123.10 199.96 122.23Q200.34 121.36 201.05 120.89Q201.75 120.41 202.72 120.41Q203.46 120.41 204.08 120.73Q204.69 121.04 205.00 121.62V118.06H206.18V128.00H205.11L205.07 126.88Q204.76 127.48 204.13 127.83Q203.50 128.17 202.72 128.17ZM202.96 127.05Q203.62 127.05 204.07 126.71Q204.53 126.38 204.76 125.75Q205.00 125.13 205.00 124.29Q205.00 123.42 204.76 122.81Q204.53 122.19 204.07 121.86Q203.62 121.53 202.96 121.53Q201.98 121.53 201.40 122.27Q200.82 123.00 200.82 124.29Q200.82 125.56 201.40 126.31Q201.98 127.05 202.96 127.05ZM210.42 128.17Q209.27 128.17 208.59 127.64Q207.91 127.10 207.91 126.15Q207.91 125.20 208.47 124.65Q209.03 124.11 210.25 123.88L212.88 123.39Q212.88 122.46 212.44 121.99Q212.00 121.53 211.12 121.53Q210.35 121.53 209.90 121.88Q209.45 122.22 209.29 122.86L208.04 122.76Q208.25 121.71 209.06 121.06Q209.86 120.41 211.12 120.41Q212.55 120.41 213.30 121.22Q214.06 122.02 214.06 123.44V126.50Q214.06 126.75 214.15 126.86Q214.24 126.96 214.45 126.96H214.75V128.00Q214.69 128.01 214.56 128.02Q214.44 128.03 214.30 128.03Q213.79 128.03 213.48 127.87Q213.16 127.71 213.02 127.36Q212.88 127.02 212.88 126.46L213.02 126.49Q212.93 126.96 212.55 127.35Q212.17 127.73 211.61 127.95Q211.05 128.17 210.42 128.17ZM210.53 127.13Q211.27 127.13 211.80 126.84Q212.32 126.56 212.60 126.06Q212.88 125.56 212.88 124.95V124.42L210.48 124.86Q209.72 125.00 209.43 125.29Q209.15 125.58 209.15 126.04Q209.15 126.56 209.52 126.84Q209.89 127.13 210.53 127.13ZM218.85 128.00Q217.84 128.00 217.36 127.54Q216.87 127.08 216.87 126.10V118.84H218.05V126.07Q218.05 126.57 218.27 126.77Q218.50 126.96 218.96 126.96H220.02V128.00ZM215.78 121.62V120.58H220.02V121.62ZM223.62 128.17Q222.47 128.17 221.80 127.64Q221.12 127.10 221.12 126.15Q221.12 125.20 221.68 124.65Q222.24 124.11 223.45 123.88L226.09 123.39Q226.09 122.46 225.65 121.99Q225.20 121.53 224.32 121.53Q223.55 121.53 223.10 121.88Q222.66 122.22 222.49 122.86L221.24 122.76Q221.45 121.71 222.26 121.06Q223.06 120.41 224.32 120.41Q225.75 120.41 226.51 121.22Q227.26 122.02 227.26 123.44V126.50Q227.26 126.75 227.35 126.86Q227.44 126.96 227.65 126.96H227.95V128.00Q227.89 128.01 227.77 128.02Q227.64 128.03 227.50 128.03Q227.00 128.03 226.68 127.87Q226.37 127.71 226.23 127.36Q226.09 127.02 226.09 126.46L226.23 126.49Q226.13 126.96 225.75 127.35Q225.37 127.73 224.81 127.95Q224.25 128.17 223.62 128.17ZM223.73 127.13Q224.48 127.13 225.00 126.84Q225.53 126.56 225.81 126.06Q226.09 125.56 226.09 124.95V124.42L223.68 124.86Q222.92 125.00 222.64 125.29Q222.35 125.58 222.35 126.04Q222.35 126.56 222.72 126.84Q223.09 127.13 223.73 127.13ZM232.83 130.10V120.58H233.93L233.95 122.18L233.79 122.09Q234.07 121.27 234.72 120.84Q235.37 120.41 236.22 120.41Q237.33 120.41 238.04 120.96Q238.74 121.50 239.09 122.39Q239.43 123.27 239.43 124.29Q239.43 125.31 239.09 126.19Q238.74 127.08 238.04 127.62Q237.33 128.17 236.22 128.17Q235.65 128.17 235.15 127.97Q234.65 127.78 234.31 127.43Q233.97 127.08 233.84 126.60L234.01 126.40V130.10ZM236.11 127.05Q237.08 127.05 237.64 126.32Q238.20 125.59 238.20 124.29Q238.20 122.99 237.64 122.26Q237.08 121.53 236.11 121.53Q235.47 121.53 235.00 121.84Q234.53 122.15 234.27 122.76Q234.01 123.38 234.01 124.29Q234.01 125.20 234.26 125.82Q234.51 126.43 234.99 126.74Q235.47 127.05 236.11 127.05ZM241.16 128.00V120.58H242.20L242.26 122.46L242.14 122.41Q242.28 121.46 242.75 121.02Q243.22 120.58 244.01 120.58H244.73V121.70H244.02Q243.46 121.70 243.09 121.90Q242.72 122.11 242.53 122.50Q242.34 122.90 242.34 123.52V128.00ZM249.37 128.17Q248.32 128.17 247.56 127.69Q246.79 127.22 246.38 126.34Q245.97 125.47 245.97 124.29Q245.97 123.11 246.38 122.25Q246.79 121.38 247.54 120.90Q248.29 120.41 249.31 120.41Q250.28 120.41 251.02 120.87Q251.76 121.32 252.18 122.19Q252.59 123.06 252.59 124.30V124.65H247.20Q247.27 125.84 247.84 126.45Q248.40 127.05 249.37 127.05Q250.10 127.05 250.57 126.70Q251.03 126.36 251.22 125.80L252.48 125.90Q252.18 126.89 251.36 127.53Q250.54 128.17 249.37 128.17ZM247.20 123.62H251.30Q251.22 122.54 250.68 122.04Q250.14 121.53 249.31 121.53Q248.46 121.53 247.91 122.06Q247.35 122.58 247.20 123.62ZM254.32 130.10V120.58H255.42L255.44 122.18L255.28 122.09Q255.56 121.27 256.21 120.84Q256.86 120.41 257.71 120.41Q258.82 120.41 259.53 120.96Q260.23 121.50 260.58 122.39Q260.92 123.27 260.92 124.29Q260.92 125.31 260.58 126.19Q260.23 127.08 259.53 127.62Q258.82 128.17 257.71 128.17Q257.14 128.17 256.64 127.97Q256.14 127.78 255.80 127.43Q255.46 127.08 255.33 126.60L255.50 126.40V130.10ZM257.60 127.05Q258.57 127.05 259.13 126.32Q259.69 125.59 259.69 124.29Q259.69 122.99 259.13 122.26Q258.57 121.53 257.60 121.53Q256.96 121.53 256.49 121.84Q256.02 122.15 255.76 122.76Q255.50 123.38 255.50 124.29Q255.50 125.20 255.75 125.82Q256.00 126.43 256.48 126.74Q256.96 127.05 257.60 127.05ZM262.19 130.18 262.86 128.00H262.15V126.42H263.73V127.80L262.89 130.18ZM272.55 128.22Q271.40 128.22 270.55 127.79Q269.70 127.36 269.20 126.59Q268.70 125.83 268.62 124.82L269.88 124.74Q269.98 125.48 270.31 126.00Q270.65 126.52 271.22 126.78Q271.78 127.05 272.58 127.05Q273.28 127.05 273.77 126.87Q274.26 126.68 274.52 126.33Q274.78 125.98 274.78 125.48Q274.78 125.02 274.56 124.66Q274.34 124.30 273.74 124.00Q273.13 123.70 271.94 123.41Q270.79 123.11 270.11 122.76Q269.43 122.41 269.13 121.91Q268.83 121.41 268.83 120.66Q268.83 119.82 269.23 119.19Q269.63 118.55 270.37 118.19Q271.11 117.84 272.13 117.84Q273.22 117.84 274.01 118.25Q274.79 118.66 275.25 119.38Q275.72 120.09 275.83 121.00L274.57 121.08Q274.48 120.48 274.18 120.01Q273.88 119.54 273.36 119.28Q272.85 119.01 272.10 119.01Q271.18 119.01 270.63 119.45Q270.09 119.89 270.09 120.61Q270.09 121.07 270.31 121.37Q270.52 121.67 271.08 121.90Q271.64 122.13 272.69 122.40Q273.94 122.71 274.67 123.13Q275.41 123.56 275.72 124.12Q276.04 124.68 276.04 125.40Q276.04 126.26 275.59 126.90Q275.14 127.54 274.36 127.88Q273.57 128.22 272.55 128.22ZM277.09 128.00 280.67 118.06H282.30L285.88 128.00H284.56L283.57 125.17H279.40L278.40 128.00ZM279.80 124.00H283.16L281.48 119.11ZM293.83 128.97 293.01 127.90Q292.67 128.04 292.22 128.13Q291.77 128.22 291.28 128.22Q289.86 128.22 288.86 127.53Q287.85 126.84 287.32 125.66Q286.79 124.49 286.79 123.04Q286.79 121.59 287.32 120.41Q287.84 119.24 288.85 118.54Q289.86 117.84 291.28 117.84Q292.74 117.84 293.75 118.54Q294.76 119.24 295.27 120.41Q295.79 121.59 295.79 123.04Q295.79 124.42 295.30 125.56Q294.81 126.71 293.89 127.41L295.12 128.97ZM291.28 127.05Q291.59 127.05 291.83 127.01Q292.07 126.98 292.25 126.89L290.81 125.09H292.10L293.16 126.49Q293.85 125.94 294.19 125.07Q294.53 124.19 294.53 123.04Q294.53 121.94 294.18 121.03Q293.82 120.12 293.10 119.56Q292.38 119.01 291.28 119.01Q290.19 119.01 289.48 119.56Q288.76 120.12 288.41 121.03Q288.05 121.94 288.05 123.04Q288.05 124.14 288.41 125.05Q288.76 125.96 289.49 126.50Q290.21 127.05 291.28 127.05ZM297.71 128.00V118.06H298.91V127.44L298.31 126.82H303.88V128.00ZM305.20 130.18 305.87 128.00H305.16V126.42H306.74V127.80L305.90 130.18ZM314.61 128.17Q313.64 128.17 312.94 127.69Q312.23 127.22 311.85 126.35Q311.47 125.48 311.47 124.29Q311.47 123.10 311.85 122.23Q312.23 121.36 312.94 120.89Q313.64 120.41 314.61 120.41Q315.35 120.41 315.97 120.73Q316.58 121.04 316.89 121.62V118.06H318.07V128.00H317.00L316.96 126.88Q316.65 127.48 316.02 127.83Q315.39 128.17 314.61 128.17ZM314.85 127.05Q315.50 127.05 315.96 126.71Q316.41 126.38 316.65 125.75Q316.89 125.13 316.89 124.29Q316.89 123.42 316.65 122.81Q316.41 122.19 315.96 121.86Q315.50 121.53 314.85 121.53Q313.87 121.53 313.29 122.27Q312.70 123.00 312.70 124.29Q312.70 125.56 313.29 126.31Q313.87 127.05 314.85 127.05ZM322.31 128.17Q321.16 128.17 320.48 127.64Q319.80 127.10 319.80 126.15Q319.80 125.20 320.36 124.65Q320.92 124.11 322.14 123.88L324.77 123.39Q324.77 122.46 324.33 121.99Q323.89 121.53 323.01 121.53Q322.24 121.53 321.79 121.88Q321.34 122.22 321.17 122.86L319.93 122.76Q320.14 121.71 320.94 121.06Q321.75 120.41 323.01 120.41Q324.44 120.41 325.19 121.22Q325.95 122.02 325.95 123.44V126.50Q325.95 126.75 326.04 126.86Q326.13 126.96 326.34 126.96H326.63V128.00Q326.58 128.01 326.45 128.02Q326.33 128.03 326.19 128.03Q325.68 128.03 325.37 127.87Q325.05 127.71 324.91 127.36Q324.77 127.02 324.77 126.46L324.91 126.49Q324.81 126.96 324.44 127.35Q324.06 127.73 323.50 127.95Q322.94 128.17 322.31 128.17ZM322.42 127.13Q323.16 127.13 323.69 126.84Q324.21 126.56 324.49 126.06Q324.77 125.56 324.77 124.95V124.42L322.36 124.86Q321.61 125.00 321.32 125.29Q321.03 125.58 321.03 126.04Q321.03 126.56 321.41 126.84Q321.78 127.13 322.42 127.13ZM330.72 128.17Q329.70 128.17 329.01 127.85Q328.31 127.52 327.94 126.96Q327.57 126.39 327.52 125.66L328.75 125.58Q328.86 126.25 329.30 126.65Q329.74 127.05 330.72 127.05Q331.48 127.05 331.89 126.80Q332.30 126.56 332.30 126.01Q332.30 125.72 332.17 125.52Q332.04 125.33 331.65 125.18Q331.25 125.03 330.50 124.89Q329.46 124.70 328.87 124.40Q328.29 124.11 328.05 123.69Q327.81 123.27 327.81 122.68Q327.81 121.69 328.55 121.05Q329.28 120.41 330.62 120.41Q331.60 120.41 332.23 120.75Q332.85 121.10 333.17 121.64Q333.49 122.19 333.56 122.79L332.33 122.88Q332.30 122.53 332.12 122.22Q331.94 121.91 331.58 121.72Q331.21 121.53 330.60 121.53Q329.80 121.53 329.42 121.84Q329.04 122.15 329.04 122.62Q329.04 122.99 329.19 123.22Q329.34 123.45 329.71 123.60Q330.08 123.74 330.72 123.86Q331.81 124.04 332.43 124.32Q333.05 124.60 333.29 125.01Q333.54 125.42 333.54 126.01Q333.54 127.03 332.75 127.60Q331.95 128.17 330.72 128.17ZM335.30 128.00V118.06H336.48V122.22L336.34 122.19Q336.48 121.57 336.81 121.18Q337.15 120.79 337.64 120.60Q338.13 120.41 338.72 120.41Q339.51 120.41 340.07 120.77Q340.62 121.13 340.91 121.76Q341.19 122.40 341.19 123.23V128.00H340.02V123.56Q340.02 122.48 339.63 121.97Q339.25 121.45 338.46 121.45Q337.57 121.45 337.02 121.99Q336.48 122.54 336.48 123.58V128.00ZM346.84 128.17Q346.07 128.17 345.46 127.83Q344.86 127.48 344.54 126.88L344.50 128.00H343.43V118.06H344.61V121.62Q344.89 121.15 345.48 120.78Q346.07 120.41 346.84 120.41Q347.82 120.41 348.53 120.89Q349.24 121.36 349.64 122.23Q350.03 123.10 350.03 124.29Q350.03 125.48 349.64 126.35Q349.24 127.22 348.53 127.69Q347.82 128.17 346.84 128.17ZM346.77 127.05Q347.70 127.05 348.25 126.31Q348.80 125.56 348.80 124.29Q348.80 123.00 348.25 122.27Q347.70 121.53 346.79 121.53Q346.11 121.53 345.62 121.86Q345.13 122.19 344.87 122.81Q344.61 123.42 344.61 124.29Q344.61 125.13 344.87 125.75Q345.13 126.38 345.61 126.71Q346.09 127.05 346.77 127.05ZM354.66 128.17Q353.64 128.17 352.87 127.69Q352.10 127.22 351.68 126.34Q351.26 125.47 351.26 124.29Q351.26 123.10 351.68 122.23Q352.10 121.36 352.87 120.89Q353.64 120.41 354.66 120.41Q355.68 120.41 356.45 120.89Q357.21 121.36 357.63 122.23Q358.05 123.10 358.05 124.29Q358.05 125.47 357.63 126.34Q357.21 127.22 356.45 127.69Q355.68 128.17 354.66 128.17ZM354.66 127.05Q355.68 127.05 356.25 126.31Q356.82 125.58 356.82 124.29Q356.82 123.00 356.25 122.27Q355.68 121.53 354.66 121.53Q353.64 121.53 353.07 122.27Q352.49 123.00 352.49 124.29Q352.49 125.58 353.07 126.31Q353.64 127.05 354.66 127.05ZM361.79 128.17Q360.64 128.17 359.96 127.64Q359.28 127.10 359.28 126.15Q359.28 125.20 359.84 124.65Q360.40 124.11 361.62 123.88L364.25 123.39Q364.25 122.46 363.81 121.99Q363.37 121.53 362.49 121.53Q361.72 121.53 361.27 121.88Q360.82 122.22 360.65 122.86L359.41 122.76Q359.62 121.71 360.42 121.06Q361.23 120.41 362.49 120.41Q363.92 120.41 364.67 121.22Q365.43 122.02 365.43 123.44V126.50Q365.43 126.75 365.52 126.86Q365.61 126.96 365.82 126.96H366.11V128.00Q366.06 128.01 365.93 128.02Q365.81 128.03 365.67 128.03Q365.16 128.03 364.85 127.87Q364.53 127.71 364.39 127.36Q364.25 127.02 364.25 126.46L364.39 126.49Q364.29 126.96 363.92 127.35Q363.54 127.73 362.98 127.95Q362.42 128.17 361.79 128.17ZM361.90 127.13Q362.64 127.13 363.17 126.84Q363.69 126.56 363.97 126.06Q364.25 125.56 364.25 124.95V124.42L361.84 124.86Q361.09 125.00 360.80 125.29Q360.51 125.58 360.51 126.04Q360.51 126.56 360.89 126.84Q361.26 127.13 361.90 127.13ZM367.50 128.00V120.58H368.54L368.59 122.46L368.48 122.41Q368.62 121.46 369.09 121.02Q369.56 120.58 370.34 120.58H371.07V121.70H370.36Q369.80 121.70 369.43 121.90Q369.05 122.11 368.87 122.50Q368.68 122.90 368.68 123.52V128.00ZM375.44 128.17Q374.47 128.17 373.77 127.69Q373.06 127.22 372.68 126.35Q372.30 125.48 372.30 124.29Q372.30 123.10 372.68 122.23Q373.06 121.36 373.77 120.89Q374.47 120.41 375.44 120.41Q376.18 120.41 376.80 120.73Q377.41 121.04 377.72 121.62V118.06H378.90V128.00H377.83L377.79 126.88Q377.48 127.48 376.85 127.83Q376.22 128.17 375.44 128.17ZM375.68 127.05Q376.33 127.05 376.79 126.71Q377.24 126.38 377.48 125.75Q377.72 125.13 377.72 124.29Q377.72 123.42 377.48 122.81Q377.24 122.19 376.79 121.86Q376.33 121.53 375.68 121.53Q374.70 121.53 374.12 122.27Q373.53 123.00 373.53 124.29Q373.53 125.56 374.12 126.31Q374.70 127.05 375.68 127.05ZM383.84 128.17Q382.82 128.17 382.12 127.85Q381.43 127.52 381.06 126.96Q380.69 126.39 380.63 125.66L381.86 125.58Q381.98 126.25 382.42 126.65Q382.86 127.05 383.84 127.05Q384.59 127.05 385.01 126.80Q385.42 126.56 385.42 126.01Q385.42 125.72 385.29 125.52Q385.15 125.33 384.76 125.18Q384.37 125.03 383.61 124.89Q382.58 124.70 381.99 124.40Q381.40 124.11 381.16 123.69Q380.93 123.27 380.93 122.68Q380.93 121.69 381.66 121.05Q382.40 120.41 383.74 120.41Q384.72 120.41 385.34 120.75Q385.97 121.10 386.29 121.64Q386.61 122.19 386.68 122.79L385.45 122.88Q385.42 122.53 385.24 122.22Q385.06 121.91 384.69 121.72Q384.33 121.53 383.71 121.53Q382.91 121.53 382.54 121.84Q382.16 122.15 382.16 122.62Q382.16 122.99 382.31 123.22Q382.45 123.45 382.82 123.60Q383.19 123.74 383.84 123.86Q384.93 124.04 385.55 124.32Q386.16 124.60 386.41 125.01Q386.65 125.42 386.65 126.01Q386.65 127.03 385.86 127.60Q385.07 128.17 383.84 128.17ZM387.95 130.18 388.63 128.00H387.91V126.42H389.49V127.80L388.65 130.18ZM394.90 128.00V118.06H401.14V119.24H396.10V122.44H400.97V123.59H396.10V126.82H401.25V128.00ZM403.17 128.00V120.58H404.35V128.00ZM403.14 119.42V118.05H404.38V119.42ZM406.59 128.00V120.58H407.67L407.71 122.47L407.57 122.34Q407.71 121.69 408.06 121.26Q408.41 120.83 408.91 120.62Q409.40 120.41 409.98 120.41Q410.83 120.41 411.38 120.79Q411.94 121.17 412.21 121.81Q412.48 122.44 412.48 123.23V128.00H411.31V123.56Q411.31 122.88 411.15 122.41Q410.98 121.94 410.63 121.69Q410.28 121.45 409.72 121.45Q408.87 121.45 408.32 121.99Q407.76 122.53 407.76 123.56V128.00ZM417.42 128.17Q416.40 128.17 415.71 127.85Q415.02 127.52 414.65 126.96Q414.27 126.39 414.22 125.66L415.45 125.58Q415.56 126.25 416.00 126.65Q416.44 127.05 417.42 127.05Q418.18 127.05 418.59 126.80Q419.01 126.56 419.01 126.01Q419.01 125.72 418.87 125.52Q418.74 125.33 418.35 125.18Q417.96 125.03 417.20 124.89Q416.16 124.70 415.58 124.40Q414.99 124.11 414.75 123.69Q414.51 123.27 414.51 122.68Q414.51 121.69 415.25 121.05Q415.98 120.41 417.33 120.41Q418.31 120.41 418.93 120.75Q419.55 121.10 419.87 121.64Q420.20 122.19 420.27 122.79L419.03 122.88Q419.01 122.53 418.82 122.22Q418.64 121.91 418.28 121.72Q417.91 121.53 417.30 121.53Q416.50 121.53 416.12 121.84Q415.74 122.15 415.74 122.62Q415.74 122.99 415.89 123.22Q416.04 123.45 416.41 123.60Q416.78 123.74 417.42 123.86Q418.52 124.04 419.13 124.32Q419.75 124.60 419.99 125.01Q420.24 125.42 420.24 126.01Q420.24 127.03 419.45 127.60Q418.66 128.17 417.42 128.17ZM424.72 128.00Q423.71 128.00 423.23 127.54Q422.74 127.08 422.74 126.10V118.84H423.92V126.07Q423.92 126.57 424.14 126.77Q424.37 126.96 424.83 126.96H425.89V128.00ZM421.65 121.62V120.58H425.89V121.62ZM430.39 128.17Q429.34 128.17 428.58 127.69Q427.81 127.22 427.40 126.34Q426.99 125.47 426.99 124.29Q426.99 123.11 427.40 122.25Q427.81 121.38 428.56 120.90Q429.31 120.41 430.33 120.41Q431.30 120.41 432.04 120.87Q432.78 121.32 433.19 122.19Q433.61 123.06 433.61 124.30V124.65H428.22Q428.29 125.84 428.86 126.45Q429.42 127.05 430.39 127.05Q431.12 127.05 431.59 126.70Q432.05 126.36 432.24 125.80L433.50 125.90Q433.20 126.89 432.38 127.53Q431.56 128.17 430.39 128.17ZM428.22 123.62H432.32Q432.24 122.54 431.70 122.04Q431.16 121.53 430.33 121.53Q429.48 121.53 428.93 122.06Q428.37 122.58 428.22 123.62ZM435.34 128.00V120.58H436.52V128.00ZM435.32 119.42V118.05H436.55V119.42ZM438.76 128.00V120.58H439.84L439.88 122.47L439.74 122.34Q439.88 121.69 440.23 121.26Q440.58 120.83 441.08 120.62Q441.57 120.41 442.15 120.41Q443.00 120.41 443.56 120.79Q444.11 121.17 444.38 121.81Q444.65 122.44 444.65 123.23V128.00H443.48V123.56Q443.48 122.88 443.32 122.41Q443.16 121.94 442.81 121.69Q442.46 121.45 441.90 121.45Q441.04 121.45 440.49 121.99Q439.94 122.53 439.94 123.56V128.00ZM450.56 128.00V118.06H453.64Q455.94 118.06 457.18 119.36Q458.42 120.65 458.42 123.04Q458.42 125.42 457.20 126.71Q455.98 128.00 453.73 128.00ZM451.77 126.82H453.64Q455.39 126.82 456.27 125.88Q457.16 124.93 457.16 123.04Q457.16 121.13 456.27 120.18Q455.39 119.24 453.64 119.24H451.77ZM460.11 128.00V120.58H461.29V128.00ZM460.08 119.42V118.05H461.31V119.42ZM466.23 128.17Q465.21 128.17 464.51 127.85Q463.82 127.52 463.45 126.96Q463.08 126.39 463.02 125.66L464.25 125.58Q464.37 126.25 464.81 126.65Q465.25 127.05 466.23 127.05Q466.98 127.05 467.40 126.80Q467.81 126.56 467.81 126.01Q467.81 125.72 467.68 125.52Q467.54 125.33 467.15 125.18Q466.76 125.03 466.00 124.89Q464.97 124.70 464.38 124.40Q463.79 124.11 463.55 123.69Q463.32 123.27 463.32 122.68Q463.32 121.69 464.05 121.05Q464.79 120.41 466.13 120.41Q467.11 120.41 467.73 120.75Q468.36 121.10 468.68 121.64Q469.00 122.19 469.07 122.79L467.84 122.88Q467.81 122.53 467.63 122.22Q467.45 121.91 467.08 121.72Q466.72 121.53 466.10 121.53Q465.30 121.53 464.93 121.84Q464.55 122.15 464.55 122.62Q464.55 122.99 464.69 123.22Q464.84 123.45 465.21 123.60Q465.58 123.74 466.23 123.86Q467.32 124.04 467.94 124.32Q468.55 124.60 468.80 125.01Q469.04 125.42 469.04 126.01Q469.04 127.03 468.25 127.60Q467.46 128.17 466.23 128.17ZM473.70 128.17Q472.67 128.17 471.90 127.69Q471.14 127.22 470.72 126.34Q470.30 125.47 470.30 124.29Q470.30 123.11 470.72 122.25Q471.14 121.38 471.90 120.90Q472.67 120.41 473.70 120.41Q474.56 120.41 475.22 120.71Q475.89 121.01 476.31 121.59Q476.73 122.16 476.85 122.99L475.62 123.07Q475.50 122.33 474.98 121.93Q474.46 121.53 473.70 121.53Q472.68 121.53 472.11 122.27Q471.53 123.00 471.53 124.29Q471.53 125.58 472.11 126.31Q472.68 127.05 473.70 127.05Q474.46 127.05 474.98 126.63Q475.50 126.21 475.62 125.37L476.85 125.45Q476.73 126.28 476.31 126.89Q475.89 127.50 475.22 127.83Q474.56 128.17 473.70 128.17ZM481.35 128.17Q480.33 128.17 479.56 127.69Q478.79 127.22 478.37 126.34Q477.95 125.47 477.95 124.29Q477.95 123.10 478.37 122.23Q478.79 121.36 479.56 120.89Q480.33 120.41 481.35 120.41Q482.37 120.41 483.13 120.89Q483.90 121.36 484.32 122.23Q484.74 123.10 484.74 124.29Q484.74 125.47 484.32 126.34Q483.90 127.22 483.13 127.69Q482.37 128.17 481.35 128.17ZM481.35 127.05Q482.37 127.05 482.94 126.31Q483.50 125.58 483.50 124.29Q483.50 123.00 482.94 122.27Q482.37 121.53 481.35 121.53Q480.33 121.53 479.75 122.27Q479.18 123.00 479.18 124.29Q479.18 125.58 479.75 126.31Q480.33 127.05 481.35 127.05ZM488.36 128.00 485.66 120.58H486.95L489.10 126.80L491.26 120.58H492.55L489.85 128.00ZM496.87 128.17Q495.82 128.17 495.06 127.69Q494.30 127.22 493.88 126.34Q493.47 125.47 493.47 124.29Q493.47 123.11 493.88 122.25Q494.30 121.38 495.05 120.90Q495.80 120.41 496.82 120.41Q497.78 120.41 498.53 120.87Q499.27 121.32 499.68 122.19Q500.09 123.06 500.09 124.30V124.65H494.70Q494.77 125.84 495.34 126.45Q495.91 127.05 496.87 127.05Q497.60 127.05 498.07 126.70Q498.54 126.36 498.72 125.80L499.98 125.90Q499.69 126.89 498.87 127.53Q498.05 128.17 496.87 128.17ZM494.70 123.62H498.81Q498.72 122.54 498.18 122.04Q497.64 121.53 496.82 121.53Q495.96 121.53 495.41 122.06Q494.86 122.58 494.70 123.62ZM501.83 128.00V120.58H502.87L502.92 122.46L502.81 122.41Q502.95 121.46 503.42 121.02Q503.89 120.58 504.67 120.58H505.40V121.70H504.69Q504.13 121.70 503.75 121.90Q503.38 122.11 503.19 122.50Q503.01 122.90 503.01 123.52V128.00ZM507.46 130.10V129.06H508.31Q508.70 129.06 508.89 128.94Q509.08 128.83 509.18 128.56L509.45 127.86H509.04L506.32 120.58H507.61L509.82 126.77L511.94 120.58H513.23L510.22 128.94Q510.01 129.54 509.59 129.82Q509.17 130.10 508.42 130.10ZM514.15 128.00V126.42H515.73V128.00ZM521.14 128.00V118.06H527.38V119.24H521.74L522.34 118.62V123.18L521.74 122.57H527.13V123.72H521.74L522.34 123.10V128.00ZM529.23 128.00V120.58H530.26L530.32 122.46L530.21 122.41Q530.35 121.46 530.82 121.02Q531.29 120.58 532.07 120.58H532.80V121.70H532.08Q531.52 121.70 531.15 121.90Q530.78 122.11 530.59 122.50Q530.40 122.90 530.40 123.52V128.00ZM537.43 128.17Q536.38 128.17 535.62 127.69Q534.86 127.22 534.44 126.34Q534.03 125.47 534.03 124.29Q534.03 123.11 534.44 122.25Q534.86 121.38 535.61 120.90Q536.35 120.41 537.38 120.41Q538.34 120.41 539.08 120.87Q539.83 121.32 540.24 122.19Q540.65 123.06 540.65 124.30V124.65H535.26Q535.33 125.84 535.90 126.45Q536.47 127.05 537.43 127.05Q538.16 127.05 538.63 126.70Q539.10 126.36 539.28 125.80L540.54 125.90Q540.25 126.89 539.43 127.53Q538.61 128.17 537.43 128.17ZM535.26 123.62H539.36Q539.28 122.54 538.74 122.04Q538.20 121.53 537.38 121.53Q536.52 121.53 535.97 122.06Q535.42 122.58 535.26 123.62ZM545.29 128.17Q544.24 128.17 543.47 127.69Q542.71 127.22 542.30 126.34Q541.88 125.47 541.88 124.29Q541.88 123.11 542.30 122.25Q542.71 121.38 543.46 120.90Q544.21 120.41 545.23 120.41Q546.20 120.41 546.94 120.87Q547.68 121.32 548.09 122.19Q548.51 123.06 548.51 124.30V124.65H543.12Q543.19 125.84 543.75 126.45Q544.32 127.05 545.29 127.05Q546.01 127.05 546.48 126.70Q546.95 126.36 547.13 125.80L548.39 125.90Q548.10 126.89 547.28 127.53Q546.46 128.17 545.29 128.17ZM543.12 123.62H547.22Q547.13 122.54 546.60 122.04Q546.06 121.53 545.23 121.53Q544.38 121.53 543.82 122.06Q543.27 122.58 543.12 123.62Z" fill="#a1a1a1"/>
<path d="M29.85 149.00V140.91Q29.85 140.08 30.32 139.57Q30.80 139.06 31.81 139.06H32.98V140.10H31.89Q31.46 140.10 31.24 140.33Q31.02 140.57 31.02 140.99V149.00ZM28.84 142.62V141.58H32.89V142.62ZM37.55 149.17Q36.53 149.17 35.76 148.69Q34.99 148.22 34.57 147.34Q34.15 146.47 34.15 145.29Q34.15 144.10 34.57 143.23Q34.99 142.36 35.76 141.89Q36.53 141.41 37.55 141.41Q38.57 141.41 39.33 141.89Q40.10 142.36 40.52 143.23Q40.94 144.10 40.94 145.29Q40.94 146.47 40.52 147.34Q40.10 148.22 39.33 148.69Q38.57 149.17 37.55 149.17ZM37.55 148.05Q38.57 148.05 39.14 147.31Q39.70 146.58 39.70 145.29Q39.70 144.00 39.14 143.27Q38.57 142.53 37.55 142.53Q36.53 142.53 35.95 143.27Q35.38 144.00 35.38 145.29Q35.38 146.58 35.95 147.31Q36.53 148.05 37.55 148.05ZM42.67 149.00V141.58H43.71L43.76 143.46L43.65 143.41Q43.79 142.46 44.26 142.02Q44.73 141.58 45.51 141.58H46.24V142.70H45.53Q44.97 142.70 44.60 142.90Q44.23 143.11 44.04 143.50Q43.85 143.90 43.85 144.52V149.00ZM50.88 149.17Q49.83 149.17 49.06 148.69Q48.30 148.22 47.89 147.34Q47.47 146.47 47.47 145.29Q47.47 144.11 47.89 143.25Q48.30 142.38 49.05 141.89Q49.80 141.41 50.82 141.41Q51.79 141.41 52.53 141.87Q53.27 142.32 53.68 143.19Q54.10 144.06 54.10 145.30V145.65H48.71Q48.78 146.84 49.34 147.45Q49.91 148.05 50.88 148.05Q51.60 148.05 52.07 147.70Q52.54 147.36 52.72 146.80L53.98 146.90Q53.69 147.89 52.87 148.53Q52.05 149.17 50.88 149.17ZM48.71 144.62H52.81Q52.72 143.54 52.19 143.04Q51.65 142.53 50.82 142.53Q49.97 142.53 49.41 143.06Q48.86 143.58 48.71 144.62ZM57.72 149.00 55.02 141.58H56.31L58.46 147.80L60.62 141.58H61.91L59.21 149.00ZM66.23 149.17Q65.18 149.17 64.42 148.69Q63.66 148.22 63.24 147.34Q62.83 146.47 62.83 145.29Q62.83 144.11 63.24 143.25Q63.66 142.38 64.41 141.89Q65.16 141.41 66.18 141.41Q67.14 141.41 67.89 141.87Q68.63 142.32 69.04 143.19Q69.45 144.06 69.45 145.30V145.65H64.06Q64.13 146.84 64.70 147.45Q65.27 148.05 66.23 148.05Q66.96 148.05 67.43 147.70Q67.90 147.36 68.08 146.80L69.34 146.90Q69.05 147.89 68.23 148.53Q67.41 149.17 66.23 149.17ZM64.06 144.62H68.17Q68.08 143.54 67.54 143.04Q67.00 142.53 66.18 142.53Q65.32 142.53 64.77 143.06Q64.22 143.58 64.06 144.62ZM71.19 149.00V141.58H72.23L72.28 143.46L72.17 143.41Q72.31 142.46 72.78 142.02Q73.25 141.58 74.03 141.58H74.76V142.70H74.05Q73.49 142.70 73.11 142.90Q72.74 143.11 72.56 143.50Q72.37 143.90 72.37 144.52V149.00ZM75.99 149.00V147.42H77.57V149.00Z" fill="#a1a1a1"/>
<rect x="28" y="154" width="524" height="1" fill="#313131"/>
<path d="M30.93 176.00 28.36 167.48H29.46L31.74 175.33H31.46L33.74 167.48H34.84L32.27 176.00ZM38.84 176.14Q37.89 176.14 37.32 175.50Q36.76 174.86 36.76 173.73V169.64H37.77V173.46Q37.77 174.38 38.10 174.82Q38.43 175.26 39.11 175.26Q39.86 175.26 40.29 174.77Q40.72 174.28 40.72 173.43V169.64H41.73V176.00H40.77V174.43L40.92 174.51Q40.73 175.29 40.19 175.72Q39.65 176.14 38.84 176.14ZM47.03 176.14Q46.13 176.14 45.48 175.74Q44.82 175.33 44.47 174.58Q44.12 173.83 44.12 172.82Q44.12 171.81 44.47 171.07Q44.82 170.32 45.47 169.91Q46.11 169.50 46.98 169.50Q47.81 169.50 48.45 169.89Q49.08 170.28 49.44 171.02Q49.80 171.76 49.80 172.83V173.13H45.17Q45.23 174.15 45.72 174.67Q46.20 175.18 47.03 175.18Q47.66 175.18 48.06 174.89Q48.46 174.60 48.62 174.12L49.70 174.20Q49.44 175.05 48.74 175.60Q48.04 176.14 47.03 176.14ZM45.17 172.24H48.70Q48.63 171.32 48.16 170.89Q47.69 170.46 46.98 170.46Q46.25 170.46 45.78 170.91Q45.30 171.36 45.17 172.24ZM61.58 173.08V171.62H63.06V173.08ZM77.68 176.14Q76.80 176.14 76.15 175.74Q75.50 175.33 75.14 174.58Q74.78 173.83 74.78 172.82Q74.78 171.80 75.14 171.06Q75.50 170.31 76.15 169.90Q76.80 169.50 77.68 169.50Q78.56 169.50 79.21 169.90Q79.86 170.31 80.22 171.06Q80.58 171.80 80.58 172.82Q80.58 173.83 80.22 174.58Q79.86 175.33 79.21 175.74Q78.56 176.14 77.68 176.14ZM77.68 175.18Q78.56 175.18 79.04 174.55Q79.53 173.92 79.53 172.82Q79.53 171.72 79.04 171.09Q78.56 170.46 77.68 170.46Q76.80 170.46 76.32 171.09Q75.83 171.72 75.83 172.82Q75.83 173.92 76.32 174.55Q76.80 175.18 77.68 175.18ZM82.72 177.80V169.64H83.66L83.68 171.08L83.54 171.01Q83.78 170.26 84.33 169.88Q84.89 169.50 85.62 169.50Q86.57 169.50 87.18 169.96Q87.78 170.43 88.07 171.19Q88.36 171.94 88.36 172.82Q88.36 173.70 88.07 174.45Q87.78 175.21 87.18 175.68Q86.57 176.14 85.62 176.14Q85.13 176.14 84.71 175.98Q84.28 175.81 83.99 175.51Q83.69 175.21 83.58 174.80L83.73 174.63V177.80ZM85.53 175.18Q86.36 175.18 86.83 174.56Q87.30 173.94 87.30 172.82Q87.30 171.70 86.83 171.08Q86.36 170.46 85.53 170.46Q84.98 170.46 84.57 170.72Q84.17 170.98 83.95 171.51Q83.73 172.04 83.73 172.82Q83.73 173.60 83.94 174.13Q84.16 174.66 84.57 174.92Q84.98 175.18 85.53 175.18ZM93.11 176.14Q92.21 176.14 91.56 175.74Q90.90 175.33 90.55 174.58Q90.20 173.83 90.20 172.82Q90.20 171.81 90.55 171.07Q90.90 170.32 91.55 169.91Q92.19 169.50 93.06 169.50Q93.89 169.50 94.53 169.89Q95.16 170.28 95.52 171.02Q95.88 171.76 95.88 172.83V173.13H91.25Q91.31 174.15 91.80 174.67Q92.28 175.18 93.11 175.18Q93.74 175.18 94.14 174.89Q94.54 174.60 94.70 174.12L95.78 174.20Q95.52 175.05 94.82 175.60Q94.12 176.14 93.11 176.14ZM91.25 172.24H94.78Q94.71 171.32 94.24 170.89Q93.77 170.46 93.06 170.46Q92.33 170.46 91.86 170.91Q91.38 171.36 91.25 172.24ZM98.13 176.00V169.64H99.05L99.09 171.26L98.97 171.15Q99.09 170.59 99.41 170.22Q99.72 169.86 100.17 169.68Q100.61 169.50 101.10 169.50Q101.84 169.50 102.32 169.82Q102.81 170.14 103.06 170.69Q103.31 171.24 103.31 171.91V176.00H102.30V172.20Q102.30 171.31 101.96 170.85Q101.61 170.38 100.89 170.38Q100.40 170.38 100.00 170.59Q99.60 170.80 99.37 171.21Q99.14 171.61 99.14 172.20V176.00ZM116.20 176.14Q115.37 176.14 114.77 175.86Q114.17 175.57 113.83 175.08Q113.49 174.60 113.44 174.00L114.50 173.92Q114.59 174.51 115.02 174.85Q115.44 175.18 116.20 175.18Q116.91 175.18 117.30 174.98Q117.69 174.78 117.69 174.34Q117.69 174.07 117.56 173.89Q117.42 173.71 117.06 173.58Q116.70 173.46 116.01 173.34Q115.08 173.17 114.56 172.92Q114.04 172.68 113.82 172.30Q113.61 171.93 113.61 171.42Q113.61 170.86 113.88 170.43Q114.16 170.00 114.70 169.75Q115.24 169.50 116.02 169.50Q116.81 169.50 117.35 169.78Q117.88 170.06 118.19 170.52Q118.50 170.98 118.60 171.54L117.54 171.61Q117.47 171.27 117.27 171.01Q117.08 170.76 116.76 170.61Q116.44 170.46 116.01 170.46Q115.31 170.46 114.98 170.73Q114.64 171.01 114.64 171.42Q114.64 171.74 114.80 171.93Q114.95 172.12 115.30 172.24Q115.65 172.35 116.22 172.45Q117.21 172.60 117.75 172.85Q118.29 173.10 118.50 173.46Q118.72 173.82 118.72 174.34Q118.72 174.91 118.39 175.31Q118.06 175.71 117.49 175.93Q116.92 176.14 116.20 176.14ZM123.76 176.14Q122.88 176.14 122.23 175.74Q121.58 175.33 121.22 174.58Q120.86 173.83 120.86 172.82Q120.86 171.80 121.22 171.06Q121.58 170.31 122.23 169.90Q122.88 169.50 123.76 169.50Q124.64 169.50 125.29 169.90Q125.94 170.31 126.30 171.06Q126.66 171.80 126.66 172.82Q126.66 173.83 126.30 174.58Q125.94 175.33 125.29 175.74Q124.64 176.14 123.76 176.14ZM123.76 175.18Q124.64 175.18 125.12 174.55Q125.61 173.92 125.61 172.82Q125.61 171.72 125.12 171.09Q124.64 170.46 123.76 170.46Q122.88 170.46 122.40 171.09Q121.91 171.72 121.91 172.82Q121.91 173.92 122.40 174.55Q122.88 175.18 123.76 175.18ZM131.00 176.14Q130.05 176.14 129.48 175.50Q128.92 174.86 128.92 173.73V169.64H129.93V173.46Q129.93 174.38 130.26 174.82Q130.59 175.26 131.27 175.26Q132.02 175.26 132.45 174.77Q132.88 174.28 132.88 173.43V169.64H133.89V176.00H132.93V174.43L133.08 174.51Q132.89 175.29 132.35 175.72Q131.81 176.14 131.00 176.14ZM136.60 176.00V175.11H138.75L138.26 175.59V170.04L138.75 170.53H136.60V169.64H139.10L139.19 171.34L139.10 171.27Q139.19 170.44 139.60 170.04Q140.01 169.64 140.69 169.64H142.00V170.55H140.70Q140.24 170.55 139.92 170.74Q139.60 170.92 139.43 171.28Q139.26 171.63 139.26 172.16V175.59L138.78 175.11H141.28V176.00ZM146.97 176.14Q146.08 176.14 145.42 175.74Q144.76 175.33 144.40 174.58Q144.04 173.83 144.04 172.82Q144.04 171.81 144.40 171.07Q144.76 170.32 145.42 169.91Q146.08 169.50 146.97 169.50Q147.68 169.50 148.23 169.75Q148.78 170.01 149.14 170.50Q149.50 171.00 149.63 171.70L148.58 171.78Q148.43 171.14 148.01 170.80Q147.58 170.46 146.97 170.46Q146.09 170.46 145.59 171.09Q145.10 171.72 145.10 172.82Q145.10 173.92 145.59 174.55Q146.09 175.18 146.97 175.18Q147.58 175.18 148.03 174.82Q148.48 174.46 148.62 173.74L149.68 173.82Q149.55 174.52 149.18 175.05Q148.80 175.57 148.24 175.86Q147.68 176.14 146.97 176.14ZM154.55 176.14Q153.65 176.14 153.00 175.74Q152.34 175.33 151.99 174.58Q151.64 173.83 151.64 172.82Q151.64 171.81 151.99 171.07Q152.34 170.32 152.99 169.91Q153.63 169.50 154.50 169.50Q155.33 169.50 155.97 169.89Q156.60 170.28 156.96 171.02Q157.32 171.76 157.32 172.83V173.13H152.69Q152.75 174.15 153.24 174.67Q153.72 175.18 154.55 175.18Q155.18 175.18 155.58 174.89Q155.98 174.60 156.14 174.12L157.22 174.20Q156.96 175.05 156.26 175.60Q155.56 176.14 154.55 176.14ZM152.69 172.24H156.22Q156.15 171.32 155.68 170.89Q155.21 170.46 154.50 170.46Q153.77 170.46 153.30 170.91Q152.82 171.36 152.69 172.24Z" fill="#737373"/>
</svg>