<svg xmlns="http://www.w3.org/2000/svg" viewBox="0 0 126 34" width="126" height="34" role="img" aria-label="@imswarnil">
<rect width="126" height="34" fill="#ffffff"/>
<rect width="126.0" height="34" rx="17.0" fill="#e5e5e5"/>
<g transform="translate(15 9.5) scale(0.625)"><path d="M7.0301.084c-1.2768.0602-2.1487.264-2.911.5634-.7888.3075-1.4575.72-2.1228 1.3877-.6652.6677-1.075 1.3368-1.3802 2.127-.2954.7638-.4956 1.6365-.552 2.914-.0564 1.2775-.0689 1.6882-.0626 4.947.0062 3.2586.0206 3.6671.0825 4.9473.061 1.2765.264 2.1482.5635 2.9107.308.7889.72 1.4573 1.388 2.1228.6679.6655 1.3365 1.0743 2.1285 1.38.7632.295 1.6361.4961 2.9134.552 1.2773.056 1.6884.069 4.9462.0627 3.2578-.0062 3.668-.0207 4.9478-.0814 1.28-.0607 2.147-.2652 2.9098-.5633.7889-.3086 1.4578-.72 2.1228-1.3881.665-.6682 1.0745-1.3378 1.3795-2.1284.2957-.7632.4966-1.636.552-2.9124.056-1.2809.0692-1.6898.063-4.948-.0063-3.2583-.021-3.6668-.0817-4.9465-.0607-1.2797-.264-2.1487-.5633-2.9117-.3084-.7889-.72-1.4568-1.3876-2.1228C21.2982 1.33 20.628.9208 19.8378.6165 19.074.321 18.2017.1197 16.9244.0645 15.6471.0093 15.236-.005 11.977.0014 8.718.0076 8.31.0215 7.0301.0839m.1402 21.6932c-1.17-.0509-1.8053-.2453-2.2287-.408-.5606-.216-.96-.4771-1.3819-.895-.422-.4178-.6811-.8186-.9-1.378-.1644-.4234-.3624-1.058-.4171-2.228-.0595-1.2645-.072-1.6442-.079-4.848-.007-3.2037.0053-3.583.0607-4.848.05-1.169.2456-1.805.408-2.2282.216-.5613.4762-.96.895-1.3816.4188-.4217.8184-.6814 1.3783-.9003.423-.1651 1.0575-.3614 2.227-.4171 1.2655-.06 1.6447-.072 4.848-.079 3.2033-.007 3.5835.005 4.8495.0608 1.169.0508 1.8053.2445 2.228.408.5608.216.96.4754 1.3816.895.4217.4194.6816.8176.9005 1.3787.1653.4217.3617 1.056.4169 2.2263.0602 1.2655.0739 1.645.0796 4.848.0058 3.203-.0055 3.5834-.061 4.848-.051 1.17-.245 1.8055-.408 2.2294-.216.5604-.4763.96-.8954 1.3814-.419.4215-.8181.6811-1.3783.9-.4224.1649-1.0577.3617-2.2262.4174-1.2656.0595-1.6448.072-4.8493.079-3.2045.007-3.5825-.006-4.848-.0608M16.953 5.5864A1.44 1.44 0 1 0 18.39 4.144a1.44 1.44 0 0 0-1.437 1.4424M5.8385 12.012c.0067 3.4032 2.7706 6.1557 6.173 6.1493 3.4026-.0065 6.157-2.7701 6.1506-6.1733-.0065-3.4032-2.771-6.1565-6.174-6.1498-3.403.0067-6.156 2.771-6.1496 6.1738M8 12.0077a4 4 0 1 1 4.008 3.9921A3.9996 3.9996 0 0 1 8 12.0077" fill="#0a0a0a"/></g>
<path d="M44.16 22.39Q43.66 22.62 43.19 22.73Q42.73 22.84 42.28 22.84Q41.40 22.84 40.70 22.41Q40.01 21.97 39.61 21.03Q39.22 20.08 39.22 18.57Q39.22 17.19 39.50 16.15Q39.79 15.10 40.30 14.40Q40.81 13.69 41.50 13.33Q42.18 12.98 42.98 12.98Q43.96 12.98 44.62 13.48Q45.29 13.99 45.64 14.87Q45.98 15.75 45.98 16.93Q45.98 18.28 45.77 19.08Q45.55 19.88 45.17 20.23Q44.78 20.58 44.26 20.58Q43.85 20.58 43.56 20.23Q43.27 19.88 43.19 19.30L43.33 19.28Q43.25 19.69 43.04 19.97Q42.84 20.25 42.58 20.40Q42.31 20.54 42.01 20.54Q41.40 20.54 41.06 19.99Q40.72 19.45 40.72 18.49Q40.72 17.67 40.95 16.99Q41.18 16.32 41.58 15.90Q41.98 15.49 42.49 15.49Q42.79 15.49 43.01 15.62Q43.22 15.75 43.34 15.97Q43.45 16.20 43.44 16.48L43.31 16.62L43.43 15.51H44.33Q44.26 16.27 44.19 16.91Q44.12 17.55 44.08 18.05Q44.04 18.55 44.04 18.91Q44.04 19.32 44.15 19.52Q44.26 19.72 44.42 19.72Q44.62 19.72 44.78 19.46Q44.94 19.20 45.03 18.60Q45.12 18.00 45.12 16.98Q45.12 16.03 44.89 15.32Q44.66 14.61 44.18 14.23Q43.70 13.84 42.94 13.84Q42.34 13.84 41.82 14.13Q41.30 14.42 40.91 15.01Q40.51 15.61 40.30 16.49Q40.08 17.37 40.08 18.55Q40.08 19.77 40.36 20.53Q40.63 21.30 41.14 21.64Q41.64 21.99 42.30 21.99Q42.67 21.99 43.06 21.88Q43.44 21.78 43.85 21.56ZM42.31 19.74Q42.49 19.74 42.65 19.56Q42.82 19.39 42.95 19.07Q43.08 18.75 43.15 18.34Q43.22 17.92 43.22 17.44Q43.22 16.89 43.07 16.61Q42.92 16.33 42.64 16.33Q42.38 16.33 42.19 16.62Q41.99 16.90 41.86 17.37Q41.74 17.84 41.74 18.40Q41.74 19.02 41.89 19.38Q42.04 19.74 42.31 19.74ZM47.11 21.50V20.48H49.61V15.58L50.17 16.14H47.23V15.12H50.83V20.48H52.97V21.50H50.83H49.61ZM49.54 14.19V12.93H50.78V14.19ZM53.83 21.50V15.12H54.89L54.94 16.56L54.80 16.52Q54.92 15.79 55.28 15.38Q55.63 14.97 56.17 14.97Q56.75 14.97 57.04 15.38Q57.34 15.79 57.41 16.59H57.28Q57.38 15.82 57.77 15.40Q58.15 14.97 58.73 14.97Q59.48 14.97 59.83 15.49Q60.17 16.02 60.17 17.19V21.50H58.99V17.40Q58.99 16.63 58.83 16.33Q58.67 16.03 58.33 16.03Q58.12 16.03 57.94 16.17Q57.77 16.32 57.67 16.62Q57.58 16.93 57.58 17.42V21.50H56.42V17.40Q56.42 16.65 56.27 16.34Q56.12 16.03 55.78 16.03Q55.55 16.03 55.38 16.17Q55.21 16.32 55.11 16.62Q55.01 16.93 55.01 17.42V21.50ZM64.30 21.64Q63.44 21.64 62.83 21.36Q62.22 21.07 61.88 20.58Q61.55 20.10 61.50 19.50L62.74 19.42Q62.83 19.94 63.22 20.25Q63.60 20.55 64.31 20.55Q64.97 20.55 65.32 20.37Q65.66 20.19 65.66 19.81Q65.66 19.57 65.54 19.41Q65.42 19.24 65.09 19.13Q64.76 19.02 64.13 18.90Q63.18 18.72 62.65 18.47Q62.11 18.22 61.88 17.85Q61.66 17.47 61.66 16.93Q61.66 16.38 61.94 15.93Q62.22 15.49 62.77 15.23Q63.32 14.97 64.14 14.97Q64.99 14.97 65.54 15.27Q66.10 15.56 66.41 16.03Q66.72 16.50 66.80 17.05L65.57 17.12Q65.50 16.81 65.32 16.57Q65.14 16.34 64.84 16.20Q64.54 16.06 64.14 16.06Q63.50 16.06 63.20 16.32Q62.90 16.57 62.90 16.93Q62.90 17.22 63.05 17.39Q63.19 17.56 63.53 17.68Q63.86 17.79 64.44 17.90Q65.41 18.06 65.94 18.30Q66.47 18.55 66.68 18.91Q66.90 19.27 66.90 19.80Q66.90 20.37 66.57 20.79Q66.24 21.20 65.66 21.42Q65.08 21.64 64.30 21.64ZM69.25 21.50 68.02 15.12H69.29L70.04 20.05L70.88 16.02H71.92L72.76 20.05L73.51 15.12H74.78L73.56 21.50H72.19L71.40 17.77L70.61 21.50ZM77.74 21.64Q77.14 21.64 76.66 21.43Q76.18 21.21 75.89 20.82Q75.61 20.42 75.61 19.89Q75.61 19.08 76.11 18.62Q76.61 18.16 77.62 17.97L79.68 17.54Q79.68 16.80 79.36 16.42Q79.03 16.05 78.38 16.05Q77.78 16.05 77.45 16.33Q77.11 16.60 76.99 17.10L75.72 17.01Q75.90 16.10 76.60 15.54Q77.29 14.97 78.38 14.97Q79.61 14.97 80.25 15.67Q80.89 16.36 80.89 17.59V20.11Q80.89 20.32 80.99 20.41Q81.08 20.50 81.26 20.50H81.62V21.50Q81.55 21.51 81.39 21.52Q81.23 21.54 81.07 21.54Q80.64 21.54 80.34 21.39Q80.04 21.25 79.89 20.94Q79.74 20.64 79.72 20.17H79.91Q79.84 20.59 79.54 20.92Q79.24 21.26 78.77 21.45Q78.30 21.64 77.74 21.64ZM77.92 20.65Q78.49 20.65 78.89 20.44Q79.28 20.24 79.48 19.87Q79.68 19.50 79.68 18.99V18.50L77.90 18.86Q77.33 18.97 77.10 19.20Q76.87 19.42 76.87 19.80Q76.87 20.19 77.15 20.42Q77.42 20.65 77.92 20.65ZM83.21 21.50V20.48H85.38L84.83 21.03V15.58L85.38 16.14H83.21V15.12H85.79L85.90 16.89L85.79 16.81Q85.87 15.96 86.27 15.54Q86.68 15.12 87.40 15.12H88.75V16.17H87.44Q86.99 16.17 86.68 16.35Q86.36 16.52 86.20 16.86Q86.04 17.20 86.04 17.71V21.03L85.49 20.48H88.03V21.50ZM90.36 21.50V15.12H91.48L91.51 16.78L91.38 16.69Q91.50 16.10 91.81 15.72Q92.11 15.34 92.56 15.16Q93.00 14.97 93.50 14.97Q94.22 14.97 94.69 15.29Q95.16 15.61 95.40 16.15Q95.64 16.70 95.64 17.38V21.50H94.43V17.70Q94.43 16.87 94.11 16.45Q93.79 16.03 93.16 16.03Q92.71 16.03 92.36 16.22Q92.00 16.41 91.79 16.79Q91.57 17.17 91.57 17.72V21.50ZM97.51 21.50V20.48H100.01V15.58L100.57 16.14H97.63V15.12H101.23V20.48H103.37V21.50H101.23H100.01ZM99.94 14.19V12.93H101.18V14.19ZM106.97 21.12V14.79Q106.97 14.42 106.76 14.21Q106.55 14.00 106.18 14.00H104.71V12.98H106.31Q107.23 12.98 107.71 13.45Q108.18 13.93 108.18 14.85V21.12ZM104.47 21.50V20.48H110.33V21.50Z" fill="#0a0a0a"/>
</svg>